<svg width="116" height="143" viewBox="0 0 116 143" fill="none" xmlns="http://www.w3.org/2000/svg">
<path d="M104.255 10.2632H14.4924C12.7448 10.2632 11.328 11.68 11.328 13.4276V94.2908C11.328 96.0385 12.7448 97.4552 14.4924 97.4552H104.255C106.002 97.4552 107.419 96.0385 107.419 94.2908V13.4276C107.419 11.68 106.002 10.2632 104.255 10.2632Z" fill="#3ECC5F"/>
<mask id="mask0_2_506" style="mask-type:luminance" maskUnits="userSpaceOnUse" x="11" y="10" width="97" height="88">
<path d="M104.255 10.2632H14.4924C12.7448 10.2632 11.328 11.68 11.328 13.4276V94.2908C11.328 96.0385 12.7448 97.4552 14.4924 97.4552H104.255C106.002 97.4552 107.419 96.0385 107.419 94.2908V13.4276C107.419 11.68 106.002 10.2632 104.255 10.2632Z" fill="white"/>
</mask>
<g mask="url(#mask0_2_506)">
<path opacity="0.2" d="M107.419 58.0244V94.3844C107.419 95.1982 107.096 95.9787 106.521 96.5545C105.946 97.1303 105.166 97.4543 104.352 97.4552H14.3988C13.5844 97.4552 12.8033 97.1317 12.2274 96.5558C11.6515 95.9799 11.328 95.1989 11.328 94.3844V87.1844H11.5188V92.0372C11.5188 92.4985 11.6097 92.9552 11.7863 93.3813C11.9629 93.8074 12.2218 94.1945 12.5481 94.5204C12.8744 94.8464 13.2618 95.1049 13.6881 95.2811C14.1143 95.4573 14.5712 95.5477 15.0324 95.5472H101.933C102.394 95.5477 102.851 95.4573 103.277 95.2811C103.703 95.1049 104.091 94.8464 104.417 94.5204C104.743 94.1945 105.002 93.8074 105.179 93.3813C105.355 92.9552 105.446 92.4985 105.446 92.0372V63.4172C105.446 62.7689 105.189 62.1472 104.73 61.6888C104.272 61.2304 103.65 60.9728 103.002 60.9728H11.328V58.0244H107.419Z" fill="black"/>
</g>
<path d="M104.255 10.2632H14.4924C12.7448 10.2632 11.328 11.68 11.328 13.4276V94.2908C11.328 96.0385 12.7448 97.4552 14.4924 97.4552H104.255C106.002 97.4552 107.419 96.0385 107.419 94.2908V13.4276C107.419 11.68 106.002 10.2632 104.255 10.2632Z" stroke="#263238" stroke-linecap="round" stroke-linejoin="round"/>
<path d="M99.0528 68.378V64.2128C99.0533 64.0103 99.0137 63.8098 98.9365 63.6226C98.8592 63.4355 98.7457 63.2654 98.6026 63.1222C98.4594 62.9791 98.2893 62.8656 98.1022 62.7883C97.915 62.7111 97.7145 62.6715 97.512 62.672H21.2352C20.8265 62.672 20.4346 62.8344 20.1457 63.1233C19.8567 63.4123 19.6944 63.8042 19.6944 64.2128V68.378C19.6944 68.7867 19.5321 69.1786 19.2431 69.4675C18.9541 69.7565 18.5622 69.9188 18.1536 69.9188C17.744 69.9188 17.3512 70.0815 17.0615 70.3712C16.7719 70.6608 16.6092 71.0536 16.6092 71.4632V79.682C16.6092 81.5773 17.3621 83.3949 18.7022 84.735C20.0423 86.0751 21.86 86.828 23.7552 86.828C24.0598 86.828 24.3519 86.949 24.5672 87.1644C24.7826 87.3797 24.9036 87.6718 24.9036 87.9764V90.4388C24.9036 91.3478 25.2647 92.2195 25.9074 92.8622C26.5501 93.5049 27.4218 93.866 28.3308 93.866H90.4164C91.3253 93.866 92.1971 93.5049 92.8398 92.8622C93.4825 92.2195 93.8436 91.3478 93.8436 90.4388V87.9764C93.8436 87.6718 93.9646 87.3797 94.18 87.1644C94.3953 86.949 94.6874 86.828 94.992 86.828C95.9304 86.828 96.8597 86.6432 97.7266 86.2841C98.5936 85.9249 99.3814 85.3986 100.045 84.735C100.709 84.0714 101.235 83.2837 101.594 82.4167C101.953 81.5497 102.138 80.6204 102.138 79.682V71.4632C102.138 71.0542 101.976 70.662 101.687 70.3724C101.398 70.0829 101.006 69.9198 100.597 69.9188C100.188 69.9188 99.7959 69.7566 99.5064 69.4677C99.2169 69.1789 99.0538 68.787 99.0528 68.378Z" fill="#263238"/>
<path d="M25.5372 65.03H22.8696C22.543 65.03 22.2299 65.1597 21.999 65.3906C21.7681 65.6215 21.6384 65.9347 21.6384 66.2612V66.9452C21.6384 68.3636 22.7868 70.1636 24.2052 70.1636C25.6236 70.1636 26.772 68.3636 26.772 66.9452V66.2612C26.771 65.9344 26.6405 65.6212 26.409 65.3904C26.1776 65.1596 25.864 65.03 25.5372 65.03Z" fill="#3ECC5F" stroke="#263238" stroke-linecap="round" stroke-linejoin="round"/>
<path d="M31.92 65.03H29.2524C28.9255 65.03 28.612 65.1596 28.3805 65.3904C28.1491 65.6212 28.0185 65.9344 28.0176 66.2612V66.9452C28.0176 68.3636 29.166 70.1636 30.5844 70.1636C32.0028 70.1636 33.1512 68.3636 33.1512 66.9452V66.2612C33.1512 65.9347 33.0215 65.6215 32.7906 65.3906C32.5597 65.1597 32.2465 65.03 31.92 65.03Z" fill="#3ECC5F" stroke="#263238" stroke-linecap="round" stroke-linejoin="round"/>
<path d="M38.328 65.03H35.6604C35.3338 65.03 35.0207 65.1597 34.7898 65.3906C34.5589 65.6215 34.4292 65.9347 34.4292 66.2612V66.9452C34.4292 68.3636 35.5776 70.1636 36.9924 70.1636C38.4072 70.1636 39.5592 68.3636 39.5592 66.9452V66.2612C39.5592 65.9347 39.4295 65.6215 39.1986 65.3906C38.9677 65.1597 38.6545 65.03 38.328 65.03Z" fill="#3ECC5F" stroke="#263238" stroke-linecap="round" stroke-linejoin="round"/>
<path d="M44.7216 65.03H42.054C41.7274 65.03 41.4143 65.1597 41.1834 65.3906C40.9525 65.6215 40.8228 65.9347 40.8228 66.2612V66.9452C40.8228 68.3636 41.9712 70.1636 43.3896 70.1636C44.808 70.1636 45.9528 68.3636 45.9528 66.9452V66.2612C45.9528 66.0995 45.9209 65.9394 45.8591 65.7901C45.7972 65.6407 45.7065 65.505 45.5922 65.3906C45.4778 65.2763 45.3421 65.1856 45.1927 65.1237C45.0434 65.0619 44.8833 65.03 44.7216 65.03Z" fill="#3ECC5F" stroke="#263238" stroke-linecap="round" stroke-linejoin="round"/>
<path d="M51.1152 65.03H48.4476C48.121 65.03 47.8079 65.1597 47.577 65.3906C47.3461 65.6215 47.2164 65.9347 47.2164 66.2612V66.9452C47.2164 68.3636 48.3648 70.1636 49.7832 70.1636C51.2016 70.1636 52.35 68.3636 52.35 66.9452V66.2612C52.349 65.9344 52.2185 65.6212 51.987 65.3904C51.7556 65.1596 51.4421 65.03 51.1152 65.03Z" fill="#3ECC5F" stroke="#263238" stroke-linecap="round" stroke-linejoin="round"/>
<path d="M57.5124 65.03H54.8448C54.5179 65.03 54.2044 65.1596 53.9729 65.3904C53.7415 65.6212 53.6109 65.9344 53.61 66.2612V66.9452C53.61 68.3636 54.7584 70.1636 56.1768 70.1636C57.5952 70.1636 58.7436 68.3636 58.7436 66.9452V66.2612C58.7436 65.9347 58.6139 65.6215 58.383 65.3906C58.1521 65.1597 57.8389 65.03 57.5124 65.03Z" fill="#3ECC5F" stroke="#263238" stroke-linecap="round" stroke-linejoin="round"/>
<path d="M63.906 65.03H61.2384C60.9119 65.03 60.5987 65.1597 60.3678 65.3906C60.1369 65.6215 60.0072 65.9347 60.0072 66.2612V66.9452C60.0072 68.3636 61.1556 70.1636 62.5704 70.1636C63.9852 70.1636 65.1372 68.3636 65.1372 66.9452V66.2612C65.1372 65.9347 65.0075 65.6215 64.7766 65.3906C64.5457 65.1597 64.2325 65.03 63.906 65.03Z" fill="#3ECC5F" stroke="#263238" stroke-linecap="round" stroke-linejoin="round"/>
<path d="M70.2996 65.03H67.632C67.3055 65.03 66.9923 65.1597 66.7614 65.3906C66.5305 65.6215 66.4008 65.9347 66.4008 66.2612V66.9452C66.4008 68.3636 67.5492 70.1636 68.9676 70.1636C70.386 70.1636 71.5308 68.3636 71.5308 66.9452V66.2612C71.5308 65.9347 71.4011 65.6215 71.1702 65.3906C70.9393 65.1597 70.6261 65.03 70.2996 65.03Z" fill="#3ECC5F" stroke="#263238" stroke-linecap="round" stroke-linejoin="round"/>
<path d="M76.6932 65.03H74.04C73.8783 65.03 73.7182 65.0619 73.5688 65.1237C73.4194 65.1856 73.2837 65.2763 73.1694 65.3906C73.0551 65.505 72.9644 65.6407 72.9025 65.7901C72.8406 65.9394 72.8088 66.0995 72.8088 66.2612V66.9452C72.8088 68.3636 73.9572 70.1636 75.3756 70.1636C76.794 70.1636 77.9424 68.3636 77.9424 66.9452V66.2612C77.9419 66.0981 77.9092 65.9368 77.846 65.7864C77.7828 65.6361 77.6905 65.4998 77.5744 65.3853C77.4582 65.2708 77.3205 65.1805 77.1693 65.1195C77.0181 65.0585 76.8562 65.0281 76.6932 65.03Z" fill="#3ECC5F" stroke="#263238" stroke-linecap="round" stroke-linejoin="round"/>
<path d="M83.0904 65.03H80.4228C80.0959 65.03 79.7824 65.1596 79.5509 65.3904C79.3195 65.6212 79.1889 65.9344 79.188 66.2612V66.9452C79.188 68.3636 80.3364 70.1636 81.7548 70.1636C83.1732 70.1636 84.3216 68.3636 84.3216 66.9452V66.2612C84.3216 65.9347 84.1919 65.6215 83.961 65.3906C83.7301 65.1597 83.4169 65.03 83.0904 65.03Z" fill="#3ECC5F" stroke="#263238" stroke-linecap="round" stroke-linejoin="round"/>
<path d="M89.484 65.03H86.8164C86.4898 65.03 86.1767 65.1597 85.9458 65.3906C85.7149 65.6215 85.5852 65.9347 85.5852 66.2612V66.9452C85.5852 68.3636 86.7336 70.1636 88.1484 70.1636C89.5632 70.1636 90.7152 68.3636 90.7152 66.9452V66.2612C90.7152 65.9347 90.5855 65.6215 90.3546 65.3906C90.1237 65.1597 89.8105 65.03 89.484 65.03Z" fill="#3ECC5F" stroke="#263238" stroke-linecap="round" stroke-linejoin="round"/>
<path d="M95.8776 65.03H93.21C92.8835 65.03 92.5703 65.1597 92.3394 65.3906C92.1085 65.6215 91.9788 65.9347 91.9788 66.2612V66.9452C91.9788 68.36 93.12 70.16 94.56 70.16C96 70.16 97.1232 68.36 97.1232 66.9416V66.2576C97.1227 66.095 97.0901 65.9341 97.0271 65.7842C96.9641 65.6343 96.872 65.4984 96.7562 65.3842C96.6404 65.2701 96.5032 65.18 96.3523 65.1192C96.2015 65.0584 96.0402 65.0281 95.8776 65.03Z" fill="#3ECC5F" stroke="#263238" stroke-linecap="round" stroke-linejoin="round"/>
<path d="M25.5372 78.5804H22.8696C22.543 78.5804 22.2299 78.7101 21.999 78.941C21.7681 79.1719 21.6384 79.4851 21.6384 79.8116V80.4956C21.6384 81.914 22.7868 83.714 24.2052 83.714C25.6236 83.714 26.772 81.914 26.772 80.4956V79.8116C26.771 79.4848 26.6405 79.1716 26.409 78.9408C26.1776 78.71 25.864 78.5804 25.5372 78.5804Z" fill="#3ECC5F" stroke="#263238" stroke-linecap="round" stroke-linejoin="round"/>
<path d="M31.92 78.5804H29.2524C28.9255 78.5804 28.612 78.71 28.3805 78.9408C28.1491 79.1716 28.0185 79.4848 28.0176 79.8116V80.4956C28.0176 81.914 29.166 83.714 30.5844 83.714C32.0028 83.714 33.1512 81.914 33.1512 80.4956V79.8116C33.1512 79.4851 33.0215 79.1719 32.7906 78.941C32.5597 78.7101 32.2465 78.5804 31.92 78.5804Z" fill="#3ECC5F" stroke="#263238" stroke-linecap="round" stroke-linejoin="round"/>
<path d="M38.328 78.5804H35.6604C35.3338 78.5804 35.0207 78.7101 34.7898 78.941C34.5589 79.1719 34.4292 79.4851 34.4292 79.8116V80.4956C34.4292 81.914 35.5776 83.714 36.9924 83.714C38.4072 83.714 39.5592 81.914 39.5592 80.4956V79.8116C39.5592 79.4851 39.4295 79.1719 39.1986 78.941C38.9677 78.7101 38.6545 78.5804 38.328 78.5804Z" fill="#3ECC5F" stroke="#263238" stroke-linecap="round" stroke-linejoin="round"/>
<path d="M44.7216 78.5804H42.054C41.7274 78.5804 41.4143 78.7101 41.1834 78.941C40.9525 79.1719 40.8228 79.4851 40.8228 79.8116V80.4956C40.8228 81.914 41.9712 83.714 43.3896 83.714C44.808 83.714 45.9528 81.914 45.9528 80.4956V79.8116C45.9528 79.6499 45.9209 79.4898 45.8591 79.3405C45.7972 79.1911 45.7065 79.0554 45.5922 78.941C45.4778 78.8267 45.3421 78.736 45.1927 78.6741C45.0434 78.6123 44.8833 78.5804 44.7216 78.5804Z" fill="#3ECC5F" stroke="#263238" stroke-linecap="round" stroke-linejoin="round"/>
<path d="M51.1152 78.5804H48.4476C48.121 78.5804 47.8079 78.7101 47.577 78.941C47.3461 79.1719 47.2164 79.4851 47.2164 79.8116V80.4956C47.2164 81.914 48.3648 83.714 49.7832 83.714C51.2016 83.714 52.35 81.914 52.35 80.4956V79.8116C52.349 79.4848 52.2185 79.1716 51.987 78.9408C51.7556 78.71 51.4421 78.5804 51.1152 78.5804Z" fill="#3ECC5F" stroke="#263238" stroke-linecap="round" stroke-linejoin="round"/>
<path d="M57.5124 78.5804H54.8448C54.5179 78.5804 54.2044 78.71 53.9729 78.9408C53.7415 79.1716 53.6109 79.4848 53.61 79.8116V80.4956C53.61 81.914 54.7584 83.714 56.1768 83.714C57.5952 83.714 58.7436 81.914 58.7436 80.4956V79.8116C58.7436 79.4851 58.6139 79.1719 58.383 78.941C58.1521 78.7101 57.8389 78.5804 57.5124 78.5804Z" fill="#3ECC5F" stroke="#263238" stroke-linecap="round" stroke-linejoin="round"/>
<path d="M63.906 78.5804H61.2384C60.9119 78.5804 60.5987 78.7101 60.3678 78.941C60.1369 79.1719 60.0072 79.4851 60.0072 79.8116V80.4956C60.0072 81.914 61.1556 83.714 62.5704 83.714C63.9852 83.714 65.1372 81.914 65.1372 80.4956V79.8116C65.1372 79.4851 65.0075 79.1719 64.7766 78.941C64.5457 78.7101 64.2325 78.5804 63.906 78.5804Z" fill="#3ECC5F" stroke="#263238" stroke-linecap="round" stroke-linejoin="round"/>
<path d="M70.2996 78.5804H67.632C67.3055 78.5804 66.9923 78.7101 66.7614 78.941C66.5305 79.1719 66.4008 79.4851 66.4008 79.8116V80.4956C66.4008 81.914 67.5492 83.714 68.9676 83.714C70.386 83.714 71.5308 81.914 71.5308 80.4956V79.8116C71.5308 79.4851 71.4011 79.1719 71.1702 78.941C70.9393 78.7101 70.6261 78.5804 70.2996 78.5804Z" fill="#3ECC5F" stroke="#263238" stroke-linecap="round" stroke-linejoin="round"/>
<path d="M76.6932 78.5804H74.04C73.8783 78.5804 73.7182 78.6123 73.5688 78.6741C73.4194 78.736 73.2837 78.8267 73.1694 78.941C73.0551 79.0554 72.9644 79.1911 72.9025 79.3405C72.8406 79.4898 72.8088 79.6499 72.8088 79.8116V80.4956C72.8088 81.914 73.9572 83.714 75.3756 83.714C76.794 83.714 77.9424 81.914 77.9424 80.4956V79.8116C77.9419 79.6485 77.9092 79.4872 77.846 79.3368C77.7828 79.1865 77.6905 79.0502 77.5744 78.9357C77.4582 78.8212 77.3205 78.7309 77.1693 78.6699C77.0181 78.6089 76.8562 78.5785 76.6932 78.5804Z" fill="#3ECC5F" stroke="#263238" stroke-linecap="round" stroke-linejoin="round"/>
<path d="M83.0904 78.5804H80.4228C80.0959 78.5804 79.7824 78.71 79.5509 78.9408C79.3195 79.1716 79.1889 79.4848 79.188 79.8116V80.4956C79.188 81.914 80.3364 83.714 81.7548 83.714C83.1732 83.714 84.3216 81.914 84.3216 80.4956V79.8116C84.3216 79.4851 84.1919 79.1719 83.961 78.941C83.7301 78.7101 83.4169 78.5804 83.0904 78.5804Z" fill="#3ECC5F" stroke="#263238" stroke-linecap="round" stroke-linejoin="round"/>
<path d="M89.484 78.5804H86.8164C86.4898 78.5804 86.1767 78.7101 85.9458 78.941C85.7149 79.1719 85.5852 79.4851 85.5852 79.8116V80.4956C85.5852 81.914 86.7336 83.714 88.1484 83.714C89.5632 83.714 90.7152 81.914 90.7152 80.4956V79.8116C90.7152 79.4851 90.5855 79.1719 90.3546 78.941C90.1237 78.7101 89.8105 78.5804 89.484 78.5804Z" fill="#3ECC5F" stroke="#263238" stroke-linecap="round" stroke-linejoin="round"/>
<path d="M95.8776 78.5804H93.21C92.8835 78.5804 92.5703 78.7101 92.3394 78.941C92.1085 79.1719 91.9788 79.4851 91.9788 79.8116V80.4956C91.9788 81.914 93.1272 83.714 94.5456 83.714C95.964 83.714 97.1088 81.914 97.1088 80.4956V79.8116C97.1088 79.4851 96.9791 79.1719 96.7482 78.941C96.5173 78.7101 96.2041 78.5804 95.8776 78.5804Z" fill="#3ECC5F" stroke="#263238" stroke-linecap="round" stroke-linejoin="round"/>
<path d="M22.3404 72.0248H19.68C19.3535 72.0248 19.0403 72.1545 18.8094 72.3854C18.5785 72.6163 18.4488 72.9295 18.4488 73.256V73.94C18.4488 75.3548 19.5972 77.1584 21.0156 77.1584C22.434 77.1584 23.5788 75.3584 23.5788 73.94V73.256C23.5788 73.0937 23.5467 72.933 23.4844 72.7832C23.4221 72.6333 23.3307 72.4973 23.2156 72.3829C23.1005 72.2684 22.964 72.1779 22.8138 72.1164C22.6636 72.055 22.5027 72.0239 22.3404 72.0248Z" fill="#3ECC5F" stroke="#263238" stroke-linecap="round" stroke-linejoin="round"/>
<path d="M28.734 72.0248H26.0664C25.7399 72.0248 25.4267 72.1545 25.1958 72.3854C24.9649 72.6163 24.8352 72.9295 24.8352 73.256V73.94C24.8352 75.3548 25.9836 77.1584 27.402 77.1584C28.8204 77.1584 29.9688 75.3584 29.9688 73.94V73.256C29.9678 72.9292 29.8373 72.616 29.6059 72.3852C29.3744 72.1544 29.0609 72.0248 28.734 72.0248Z" fill="#3ECC5F" stroke="#263238" stroke-linecap="round" stroke-linejoin="round"/>
<path d="M35.1312 72.0248H32.4636C32.1367 72.0248 31.8232 72.1544 31.5917 72.3852C31.3603 72.616 31.2297 72.9292 31.2288 73.256V73.94C31.2288 75.3548 32.3808 77.1584 33.7956 77.1584C35.2104 77.1584 36.3624 75.3584 36.3624 73.94V73.256C36.3624 72.9295 36.2327 72.6163 36.0018 72.3854C35.7709 72.1545 35.4577 72.0248 35.1312 72.0248Z" fill="#3ECC5F" stroke="#263238" stroke-linecap="round" stroke-linejoin="round"/>
<path d="M41.5248 72.0248H38.8572C38.5306 72.0248 38.2175 72.1545 37.9866 72.3854C37.7557 72.6163 37.626 72.9295 37.626 73.256V73.94C37.626 75.3548 38.7744 77.1584 40.1892 77.1584C41.604 77.1584 42.756 75.3584 42.756 73.94V73.256C42.756 73.0943 42.7241 72.9342 42.6623 72.7849C42.6004 72.6355 42.5097 72.4998 42.3954 72.3854C42.281 72.2711 42.1453 72.1804 41.9959 72.1185C41.8466 72.0567 41.6865 72.0248 41.5248 72.0248Z" fill="#3ECC5F" stroke="#263238" stroke-linecap="round" stroke-linejoin="round"/>
<path d="M47.9184 72.0248H45.24C44.9135 72.0248 44.6003 72.1545 44.3694 72.3854C44.1385 72.6163 44.0088 72.9295 44.0088 73.256V73.94C44.0088 75.3548 45.1572 77.1584 46.5756 77.1584C47.994 77.1584 49.1388 75.3584 49.1388 73.94V73.256C49.1388 72.9313 49.0106 72.6198 48.782 72.3892C48.5534 72.1586 48.243 72.0277 47.9184 72.0248Z" fill="#3ECC5F" stroke="#263238" stroke-linecap="round" stroke-linejoin="round"/>
<path d="M54.312 72.0248H51.6444C51.3179 72.0248 51.0047 72.1545 50.7738 72.3854C50.5429 72.6163 50.4132 72.9295 50.4132 73.256V73.94C50.4132 75.3548 51.5616 77.1584 52.98 77.1584C54.3984 77.1584 55.5468 75.3584 55.5468 73.94V73.256C55.5458 72.9292 55.4153 72.616 55.1839 72.3852C54.9524 72.1544 54.6389 72.0248 54.312 72.0248Z" fill="#3ECC5F" stroke="#263238" stroke-linecap="round" stroke-linejoin="round"/>
<path d="M60.72 72.0248H58.0524C57.7255 72.0248 57.412 72.1544 57.1805 72.3852C56.9491 72.616 56.8185 72.9292 56.8176 73.256V73.94C56.8176 75.3548 57.9696 77.1584 59.3844 77.1584C60.7992 77.1584 61.9512 75.3584 61.9512 73.94V73.256C61.9512 72.9295 61.8215 72.6163 61.5906 72.3854C61.3597 72.1545 61.0465 72.0248 60.72 72.0248Z" fill="#3ECC5F" stroke="#263238" stroke-linecap="round" stroke-linejoin="round"/>
<path d="M67.1028 72.0248H64.4352C64.1086 72.0248 63.7955 72.1545 63.5646 72.3854C63.3337 72.6163 63.204 72.9295 63.204 73.256V73.94C63.204 75.3548 64.3524 77.1584 65.7672 77.1584C67.182 77.1584 68.334 75.3584 68.334 73.94V73.256C68.334 72.9295 68.2043 72.6163 67.9734 72.3854C67.7425 72.1545 67.4293 72.0248 67.1028 72.0248Z" fill="#3ECC5F" stroke="#263238" stroke-linecap="round" stroke-linejoin="round"/>
<path d="M73.4964 72.0248H70.8288C70.5023 72.0248 70.1891 72.1545 69.9582 72.3854C69.7273 72.6163 69.5976 72.9295 69.5976 73.256V73.94C69.5976 75.3548 70.746 77.1584 72.1644 77.1584C73.5828 77.1584 74.7276 75.3584 74.7276 73.94V73.256C74.7276 72.9295 74.5979 72.6163 74.367 72.3854C74.1361 72.1545 73.8229 72.0248 73.4964 72.0248Z" fill="#3ECC5F" stroke="#263238" stroke-linecap="round" stroke-linejoin="round"/>
<path d="M79.89 72.0248H77.2224C76.8959 72.0248 76.5827 72.1545 76.3518 72.3854C76.1209 72.6163 75.9912 72.9295 75.9912 73.256V73.94C75.9912 75.3548 77.1396 77.1584 78.558 77.1584C79.9764 77.1584 81.1248 75.3584 81.1248 73.94V73.256C81.1238 72.9292 80.9933 72.616 80.7619 72.3852C80.5304 72.1544 80.2169 72.0248 79.89 72.0248Z" fill="#3ECC5F" stroke="#263238" stroke-linecap="round" stroke-linejoin="round"/>
<path d="M86.28 72.0248H83.6124C83.2855 72.0248 82.972 72.1544 82.7405 72.3852C82.5091 72.616 82.3785 72.9292 82.3776 73.256V73.94C82.3776 75.3548 83.5296 77.1584 84.9444 77.1584C86.3592 77.1584 87.5112 75.3584 87.5112 73.94V73.256C87.5112 72.9295 87.3815 72.6163 87.1506 72.3854C86.9197 72.1545 86.6065 72.0248 86.28 72.0248Z" fill="#3ECC5F" stroke="#263238" stroke-linecap="round" stroke-linejoin="round"/>
<path d="M92.6808 72.0248H90.0132C89.6898 72.0295 89.3812 72.1613 89.1542 72.3917C88.9272 72.6221 88.8 72.9326 88.8 73.256V73.94C88.8 75.3548 89.9484 77.1584 91.3632 77.1584C92.778 77.1584 93.93 75.3584 93.93 73.94V73.256C93.93 73.0928 93.8976 72.9312 93.8346 72.7807C93.7716 72.6301 93.6793 72.4936 93.563 72.379C93.4468 72.2644 93.3089 72.1741 93.1575 72.1133C93.006 72.0525 92.844 72.0224 92.6808 72.0248Z" fill="#3ECC5F" stroke="#263238" stroke-linecap="round" stroke-linejoin="round"/>
<path d="M99.0744 72.0248H96.4068C96.0803 72.0248 95.7671 72.1545 95.5362 72.3854C95.3053 72.6163 95.1756 72.9295 95.1756 73.256V73.94C95.1756 75.3548 96.324 77.1584 97.7424 77.1584C99.1608 77.1584 100.306 75.3584 100.306 73.94V73.256C100.306 72.9295 100.176 72.6163 99.945 72.3854C99.7141 72.1545 99.4009 72.0248 99.0744 72.0248Z" fill="#3ECC5F" stroke="#263238" stroke-linecap="round" stroke-linejoin="round"/>
<path d="M83.796 85.406H34.9512C34.313 85.406 33.7956 85.9234 33.7956 86.5616V90.068C33.7956 90.7062 34.313 91.2236 34.9512 91.2236H83.796C84.4342 91.2236 84.9516 90.7062 84.9516 90.068V86.5616C84.9516 85.9234 84.4342 85.406 83.796 85.406Z" fill="#3ECC5F" stroke="#263238" stroke-linecap="round" stroke-linejoin="round"/>
<path d="M90.3372 85.748H87.6696C87.343 85.748 87.0299 85.8777 86.799 86.1086C86.5681 86.3395 86.4384 86.6527 86.4384 86.9792V87.6632C86.4384 89.0816 87.5868 90.8816 89.0052 90.8816C90.4236 90.8816 91.5684 89.0816 91.5684 87.6632V86.9792C91.5684 86.6527 91.4387 86.3395 91.2078 86.1086C90.9769 85.8777 90.6637 85.748 90.3372 85.748Z" fill="#3ECC5F" stroke="#263238" stroke-linecap="round" stroke-linejoin="round"/>
<path d="M31.0776 85.748H28.41C28.0835 85.748 27.7703 85.8777 27.5394 86.1086C27.3085 86.3395 27.1788 86.6527 27.1788 86.9792V87.6632C27.1788 89.0816 28.3272 90.8816 29.7456 90.8816C31.164 90.8816 32.3124 89.0816 32.3124 87.6632V86.9792C32.3114 86.6524 32.1809 86.3392 31.9495 86.1084C31.718 85.8776 31.4045 85.748 31.0776 85.748Z" fill="#3ECC5F" stroke="#263238" stroke-linecap="round" stroke-linejoin="round"/>
<path opacity="0.2" d="M25.6848 66.9848C25.814 66.9854 25.9429 66.9975 26.07 67.0208C26.07 66.9956 26.07 66.9704 26.07 66.9452V66.2612C26.069 66.1196 26.0121 65.9841 25.9116 65.8843C25.8111 65.7844 25.6752 65.7284 25.5336 65.7284H22.866C22.725 65.7294 22.59 65.7858 22.4903 65.8855C22.3906 65.9852 22.3341 66.1202 22.3332 66.2612V66.9452C22.3332 67.928 23.0532 69.1664 23.9028 69.4148C23.64 68.324 24.2304 66.9848 25.6848 66.9848Z" fill="black"/>
<path opacity="0.2" d="M32.2224 66.8012C32.3039 66.7957 32.3857 66.7957 32.4672 66.8012V66.2468C32.4662 66.1058 32.4098 65.9708 32.3101 65.8711C32.2104 65.7714 32.0754 65.715 31.9344 65.714H29.2668C29.1251 65.714 28.9892 65.77 28.8888 65.8699C28.7883 65.9697 28.7313 66.1052 28.7304 66.2468V66.9308C28.7304 68.0108 29.5836 69.3608 30.5304 69.4508C30.0948 68.3348 30.6672 66.8012 32.2224 66.8012Z" fill="black"/>
<path opacity="0.2" d="M38.8068 66.7076H38.8608V66.2576C38.8608 66.1163 38.8047 65.9808 38.7047 65.8809C38.6048 65.781 38.4693 65.7248 38.328 65.7248H35.6604C35.5188 65.7248 35.3829 65.7808 35.2824 65.8807C35.1819 65.9805 35.1249 66.116 35.124 66.2576V66.9416C35.124 68.0396 36.0312 69.4616 36.9924 69.4616C37.0391 69.4652 37.0861 69.4652 37.1328 69.4616C36.6504 68.324 37.2084 66.7076 38.8068 66.7076Z" fill="black"/>
<path opacity="0.2" d="M44.7936 66.524C44.9433 66.5197 45.0929 66.5318 45.24 66.56V66.2468C45.24 66.1055 45.1839 65.97 45.0839 65.8701C44.984 65.7702 44.8485 65.714 44.7072 65.714H42.0396C41.8983 65.714 41.7628 65.7702 41.6628 65.8701C41.5629 65.97 41.5068 66.1055 41.5068 66.2468V66.9308C41.5068 67.9604 42.2988 69.2708 43.1916 69.4508C42.5796 68.3204 43.1088 66.524 44.7936 66.524Z" fill="black"/>
<path opacity="0.2" d="M51.5148 66.524H51.6516V66.254C51.6506 66.1124 51.5937 65.9769 51.4932 65.877C51.3927 65.7772 51.2568 65.7212 51.1152 65.7212H48.4476C48.3066 65.7221 48.1716 65.7786 48.0719 65.8783C47.9722 65.978 47.9157 66.113 47.9148 66.254V66.938C47.9148 68.036 48.822 69.458 49.7832 69.458C49.8323 69.4616 49.8817 69.4616 49.9308 69.458C49.3008 68.324 49.83 66.524 51.5148 66.524Z" fill="black"/>
<path opacity="0.2" d="M57.9624 66.56H58.0452V66.2468C58.0442 66.1058 57.9878 65.9708 57.8881 65.8711C57.7884 65.7714 57.6534 65.715 57.5124 65.714H54.8448C54.7031 65.714 54.5672 65.77 54.4668 65.8699C54.3663 65.9697 54.3093 66.1052 54.3084 66.2468V66.9308C54.3084 68.0288 55.2156 69.4508 56.1768 69.4508C56.2355 69.4561 56.2945 69.4561 56.3532 69.4508C55.7628 68.3168 56.2992 66.56 57.9624 66.56Z" fill="black"/>
<path opacity="0.2" d="M64.1328 66.524C64.2351 66.5255 64.3373 66.5327 64.4388 66.5456V66.2612C64.4388 66.1199 64.3826 65.9844 64.2827 65.8845C64.1828 65.7846 64.0473 65.7284 63.906 65.7284H61.2384C61.0971 65.7284 60.9616 65.7846 60.8616 65.8845C60.7617 65.9844 60.7056 66.1199 60.7056 66.2612V66.9452C60.7056 68.0252 61.5984 69.4436 62.5524 69.4652C61.9152 68.3348 62.4408 66.524 64.1328 66.524Z" fill="black"/>
<path opacity="0.2" d="M70.8324 66.6176V66.2576C70.8324 66.1163 70.7763 65.9808 70.6763 65.8809C70.5764 65.781 70.4409 65.7248 70.2996 65.7248H67.632C67.4907 65.7248 67.3552 65.781 67.2552 65.8809C67.1553 65.9808 67.0992 66.1163 67.0992 66.2576V66.9416C67.0992 68.0396 68.0028 69.4616 68.9676 69.4616C69.0642 69.4601 69.16 69.4444 69.252 69.4148C68.7336 68.306 69.2628 66.668 70.8324 66.6176Z" fill="black"/>
<path opacity="0.2" d="M76.704 66.4772C76.8814 66.4768 77.0581 66.4998 77.2296 66.5456V66.2612C77.2286 66.1196 77.1717 65.9841 77.0712 65.8843C76.9707 65.7844 76.8348 65.7284 76.6932 65.7284H74.04C73.899 65.7294 73.764 65.7858 73.6643 65.8855C73.5646 65.9852 73.5081 66.1202 73.5072 66.2612V66.9452C73.5072 67.9604 74.2776 69.242 75.1524 69.4364C74.4792 68.3096 75.0012 66.4772 76.704 66.4772Z" fill="black"/>
<path opacity="0.2" d="M83.2416 66.4772C83.3696 66.4776 83.4973 66.4897 83.6232 66.5132V66.2612C83.6222 66.1202 83.5658 65.9852 83.4661 65.8855C83.3664 65.7858 83.2314 65.7294 83.0904 65.7284H80.4228C80.2811 65.7284 80.1453 65.7844 80.0448 65.8843C79.9443 65.9841 79.8873 66.1196 79.8864 66.2612V66.9452C79.8864 68.0252 80.7504 69.3968 81.6864 69.4652C81.0096 68.3348 81.528 66.4772 83.2416 66.4772Z" fill="black"/>
<path opacity="0.2" d="M89.736 66.6608C89.8299 66.6624 89.9237 66.6696 90.0168 66.6824V66.2612C90.0168 66.1199 89.9607 65.9844 89.8607 65.8845C89.7608 65.7846 89.6253 65.7284 89.484 65.7284H86.8164C86.7464 65.7284 86.6771 65.7422 86.6125 65.769C86.5479 65.7958 86.4891 65.835 86.4396 65.8845C86.3902 65.934 86.3509 65.9927 86.3242 66.0573C86.2974 66.122 86.2836 66.1913 86.2836 66.2612V66.9452C86.2836 68.0252 87.1476 69.3932 88.0836 69.4652C87.5616 68.3276 88.1124 66.6608 89.736 66.6608Z" fill="black"/>
<path opacity="0.2" d="M96.4104 66.578V66.2612C96.4104 66.1199 96.3543 65.9844 96.2543 65.8845C96.1544 65.7846 96.0189 65.7284 95.8776 65.7284H93.21C93.0687 65.7284 92.9332 65.7846 92.8332 65.8845C92.7333 65.9844 92.6772 66.1199 92.6772 66.2612V66.9452C92.6772 68.0432 93.5808 69.4652 94.5456 69.4652C94.6844 69.4632 94.8214 69.4339 94.9488 69.3788C94.4376 68.2916 94.92 66.7004 96.4104 66.578Z" fill="black"/>
<path opacity="0.2" d="M25.8684 79.88C25.9367 79.8763 26.0052 79.8763 26.0736 79.88V79.8044C26.0726 79.6628 26.0157 79.5273 25.9152 79.4274C25.8147 79.3276 25.6788 79.2716 25.5372 79.2716H22.8696C22.7286 79.2725 22.5936 79.329 22.4939 79.4287C22.3942 79.5284 22.3377 79.6634 22.3368 79.8044V80.4884C22.3368 81.5864 23.244 83.0084 24.2052 83.0084C24.2717 83.0067 24.3379 82.9995 24.4032 82.9868C23.5968 81.8924 24.0864 79.88 25.8684 79.88Z" fill="black"/>
<path opacity="0.2" d="M32.1324 79.88C32.2446 79.8803 32.3566 79.89 32.4672 79.9088V79.8152C32.4662 79.6742 32.4098 79.5392 32.3101 79.4395C32.2104 79.3398 32.0754 79.2834 31.9344 79.2824H29.2668C29.1251 79.2824 28.9892 79.3384 28.8888 79.4382C28.7883 79.5381 28.7313 79.6736 28.7304 79.8152V80.4992C28.7304 81.5972 29.6376 83.0192 30.5988 83.0192H30.678C29.8536 81.9104 30.3396 79.88 32.1324 79.88Z" fill="black"/>
<path opacity="0.2" d="M38.4864 79.97C38.6071 79.9703 38.7276 79.9811 38.8464 80.0024V79.8116C38.8464 79.7416 38.8326 79.6724 38.8058 79.6077C38.7791 79.5431 38.7398 79.4843 38.6903 79.4349C38.6409 79.3854 38.5821 79.3461 38.5175 79.3194C38.4528 79.2926 38.3836 79.2788 38.3136 79.2788H35.646C35.5044 79.2788 35.3685 79.3348 35.268 79.4346C35.1675 79.5345 35.1105 79.67 35.1096 79.8116V80.4956C35.1096 81.5756 36.0024 82.9904 36.9564 83.0156C36.24 81.896 36.7404 79.97 38.4864 79.97Z" fill="black"/>
<path opacity="0.2" d="M44.9772 80.0168C45.0699 80.0171 45.1624 80.0231 45.2544 80.0348V79.8116C45.2544 79.7416 45.2406 79.6724 45.2138 79.6077C45.187 79.5431 45.1478 79.4843 45.0983 79.4349C45.0489 79.3854 44.9901 79.3461 44.9255 79.3194C44.8608 79.2926 44.7915 79.2788 44.7216 79.2788H42.054C41.984 79.2788 41.9147 79.2926 41.8501 79.3194C41.7854 79.3461 41.7267 79.3854 41.6772 79.4349C41.6278 79.4843 41.5885 79.5431 41.5617 79.6077C41.535 79.6724 41.5212 79.7416 41.5212 79.8116V80.4956C41.5212 81.5936 42.4248 83.0156 43.3896 83.0156H43.4328C42.7416 81.8888 43.2564 80.0168 44.9772 80.0168Z" fill="black"/>
<path opacity="0.2" d="M51.2412 79.88C51.3789 79.8801 51.5164 79.8933 51.6516 79.9196V79.8152C51.6506 79.6736 51.5937 79.5381 51.4932 79.4382C51.3927 79.3384 51.2568 79.2824 51.1152 79.2824H48.4476C48.3066 79.2834 48.1716 79.3398 48.0719 79.4395C47.9722 79.5392 47.9157 79.6742 47.9148 79.8152V80.4992C47.9148 81.5972 48.822 83.0192 49.7832 83.0192C48.9624 81.9176 49.4448 79.88 51.2412 79.88Z" fill="black"/>
<path opacity="0.2" d="M57.732 79.9232C57.8369 79.924 57.9415 79.9324 58.0452 79.9484V79.8116C58.0442 79.6706 57.9878 79.5356 57.8881 79.4359C57.7884 79.3362 57.6534 79.2798 57.5124 79.2788H54.8448C54.7031 79.2788 54.5672 79.3348 54.4668 79.4346C54.3663 79.5345 54.3093 79.67 54.3084 79.8116V80.4956C54.3084 81.5936 55.2156 83.0156 56.1768 83.0156H56.2452C55.4676 81.8996 55.9644 79.9232 57.732 79.9232Z" fill="black"/>
<path opacity="0.2" d="M64.3632 80.06H64.4388V79.808C64.4388 79.6667 64.3826 79.5312 64.2827 79.4313C64.1828 79.3314 64.0473 79.2752 63.906 79.2752H61.2384C61.0971 79.2752 60.9616 79.3314 60.8616 79.4313C60.7617 79.5312 60.7056 79.6667 60.7056 79.808V80.492C60.7056 81.59 61.6092 83.012 62.5704 83.012C62.6407 83.011 62.7107 83.0025 62.7792 82.9868C62.16 81.8636 62.6748 80.06 64.3632 80.06Z" fill="black"/>
<path opacity="0.2" d="M70.8 79.9232H70.8216V79.8116C70.8216 79.7416 70.8078 79.6724 70.781 79.6077C70.7543 79.5431 70.715 79.4843 70.6655 79.4349C70.6161 79.3854 70.5573 79.3461 70.4927 79.3194C70.428 79.2926 70.3588 79.2788 70.2888 79.2788H67.632C67.562 79.2788 67.4927 79.2926 67.4281 79.3194C67.3635 79.3461 67.3047 79.3854 67.2552 79.4349C67.2058 79.4843 67.1665 79.5431 67.1398 79.6077C67.113 79.6724 67.0992 79.7416 67.0992 79.8116V80.4956C67.0992 81.5936 68.0028 83.0156 68.9676 83.0156C69.078 83.014 69.1874 82.9945 69.2916 82.958C68.5608 81.842 69.0684 79.9232 70.8 79.9232Z" fill="black"/>
<path opacity="0.2" d="M77.0244 79.7864H77.226C77.2204 79.6485 77.162 79.5181 77.0627 79.4223C76.9635 79.3264 76.8311 79.2724 76.6932 79.2716H74.04C73.899 79.2725 73.764 79.329 73.6643 79.4287C73.5646 79.5284 73.5081 79.6634 73.5072 79.8044V80.4884C73.5072 81.5864 74.4144 83.0084 75.3756 83.0084C75.4633 83.0058 75.5503 82.9925 75.6348 82.9688C74.7312 81.896 75.1992 79.7864 77.0244 79.7864Z" fill="black"/>
<path opacity="0.2" d="M83.6124 79.88V79.8152C83.6114 79.6742 83.555 79.5392 83.4553 79.4395C83.3556 79.3398 83.2206 79.2834 83.0796 79.2824H80.412C80.2703 79.2824 80.1345 79.3384 80.034 79.4382C79.9335 79.5381 79.8765 79.6736 79.8756 79.8152V80.4992C79.8756 81.5972 80.7828 83.0192 81.744 83.0192C81.8667 83.0172 81.9883 82.9954 82.104 82.9544C81.3516 81.8384 81.8484 79.88 83.6124 79.88Z" fill="black"/>
<path opacity="0.2" d="M89.88 79.88H90.024V79.808C90.024 79.738 90.0102 79.6688 89.9834 79.6041C89.9567 79.5395 89.9174 79.4807 89.868 79.4313C89.8185 79.3818 89.7597 79.3425 89.6951 79.3158C89.6304 79.289 89.5612 79.2752 89.4912 79.2752H86.8236C86.6823 79.2752 86.5468 79.3314 86.4469 79.4313C86.3469 79.5312 86.2908 79.6667 86.2908 79.808V80.492C86.2908 81.59 87.1944 83.012 88.1556 83.012C88.2408 83.0109 88.3255 82.9988 88.4076 82.976C87.6048 81.8744 88.098 79.88 89.88 79.88Z" fill="black"/>
<path opacity="0.2" d="M96.18 80.1536C96.2592 80.1536 96.3384 80.1536 96.4104 80.1536V79.7936C96.4104 79.6523 96.3543 79.5168 96.2543 79.4169C96.1544 79.3169 96.0189 79.2608 95.8776 79.2608H93.21C93.0687 79.2608 92.9332 79.3169 92.8332 79.4169C92.7333 79.5168 92.6772 79.6523 92.6772 79.7936V80.4776C92.6772 81.5756 93.5808 82.9976 94.5456 82.9976C93.9876 81.8816 94.5276 80.1536 96.18 80.1536Z" fill="black"/>
<path opacity="0.2" d="M22.83 73.4324H22.8768V73.256C22.8758 73.1144 22.8189 72.9789 22.7184 72.8791C22.6179 72.7792 22.482 72.7232 22.3404 72.7232H19.68C19.5387 72.7232 19.4032 72.7794 19.3032 72.8793C19.2033 72.9792 19.1472 73.1147 19.1472 73.256V73.94C19.1472 75.038 20.0508 76.46 21.0156 76.46C21.1083 76.4577 21.2003 76.4432 21.2892 76.4168C20.598 75.2936 21.12 73.4324 22.83 73.4324Z" fill="black"/>
<path opacity="0.2" d="M29.0904 73.4324H29.2704V73.2488C29.2694 73.1072 29.2125 72.9717 29.112 72.8719C29.0115 72.772 28.8756 72.716 28.734 72.716H26.0664C25.9254 72.717 25.7904 72.7734 25.6907 72.8731C25.591 72.9728 25.5345 73.1078 25.5336 73.2488V73.9328C25.5336 75.0308 26.4408 76.4528 27.402 76.4528C27.4547 76.4564 27.5076 76.4564 27.5604 76.4528C26.8512 75.326 27.3624 73.4324 29.0904 73.4324Z" fill="black"/>
<path opacity="0.2" d="M35.6316 73.4324H35.664V73.256C35.663 73.115 35.6066 72.98 35.5069 72.8803C35.4072 72.7806 35.2722 72.7242 35.1312 72.7232H32.4636C32.3928 72.7223 32.3226 72.7353 32.2569 72.7616C32.1913 72.7879 32.1314 72.827 32.0809 72.8765C32.0304 72.926 31.9901 72.9851 31.9625 73.0502C31.9349 73.1153 31.9205 73.1853 31.92 73.256V73.94C31.92 75.038 32.8272 76.46 33.7884 76.46C33.885 76.4588 33.9809 76.443 34.0728 76.4132C33.3996 75.2936 33.9144 73.4324 35.6316 73.4324Z" fill="black"/>
<path opacity="0.2" d="M41.892 73.4H42.0576V73.2632C42.0576 73.1219 42.0015 72.9864 41.9015 72.8865C41.8016 72.7866 41.6661 72.7304 41.5248 72.7304H38.8572C38.7159 72.7304 38.5804 72.7866 38.4804 72.8865C38.3805 72.9864 38.3244 73.1219 38.3244 73.2632V73.9472C38.3244 75.0452 39.228 76.4672 40.1892 76.4672C40.2545 76.4658 40.3195 76.4585 40.3836 76.4456C39.6384 75.326 40.1424 73.4 41.892 73.4Z" fill="black"/>
<path opacity="0.2" d="M48.12 73.4324C48.2346 73.4325 48.349 73.4421 48.462 73.4612V73.256C48.462 73.1147 48.4059 72.9792 48.3059 72.8793C48.206 72.7794 48.0705 72.7232 47.9292 72.7232H45.24C45.0987 72.7232 44.9632 72.7794 44.8632 72.8793C44.7633 72.9792 44.7072 73.1147 44.7072 73.256V73.94C44.7072 75.038 45.6108 76.46 46.5756 76.46C45.8628 75.3404 46.3704 73.4324 48.12 73.4324Z" fill="black"/>
<path opacity="0.2" d="M54.5568 73.202C54.6531 73.2024 54.7492 73.2084 54.8448 73.22C54.8348 73.0854 54.7744 72.9594 54.6757 72.8673C54.5769 72.7752 54.447 72.7238 54.312 72.7232H51.6444C51.5034 72.7242 51.3684 72.7806 51.2687 72.8803C51.169 72.98 51.1125 73.115 51.1116 73.256V73.94C51.1116 75.038 52.0188 76.46 52.98 76.46C53.0491 76.4587 53.1178 76.4503 53.1852 76.4348C52.2492 75.3656 52.7064 73.202 54.5568 73.202Z" fill="black"/>
<path opacity="0.2" d="M61.0008 73.4756C61.0836 73.4756 61.1664 73.4756 61.242 73.4756V73.2416C61.241 73.1006 61.1846 72.9656 61.0849 72.8659C60.9852 72.7662 60.8502 72.7098 60.7092 72.7088H58.0416C57.8999 72.7088 57.7641 72.7648 57.6636 72.8647C57.5631 72.9645 57.5061 73.1 57.5052 73.2416V73.9256C57.5052 75.0236 58.4124 76.4456 59.3736 76.4456H59.4456C58.7724 75.3296 59.28 73.4756 61.0008 73.4756Z" fill="black"/>
<path opacity="0.2" d="M67.6356 73.256C67.6356 73.1147 67.5795 72.9792 67.4795 72.8793C67.3796 72.7794 67.2441 72.7232 67.1028 72.7232H64.4352C64.3652 72.7232 64.2959 72.737 64.2313 72.7638C64.1667 72.7906 64.1079 72.8298 64.0584 72.8793C64.009 72.9287 63.9697 72.9875 63.943 73.0521C63.9162 73.1168 63.9024 73.1861 63.9024 73.256V73.94C63.9024 75.038 64.806 76.46 65.7672 76.46C65.9592 76.4553 66.1472 76.4034 66.3144 76.3088C65.5872 75.236 66.0264 73.4 67.6356 73.256Z" fill="black"/>
<path opacity="0.2" d="M74.04 73.4V73.2632C74.04 73.1219 73.9839 72.9864 73.8839 72.8865C73.784 72.7866 73.6485 72.7304 73.5072 72.7304H70.8396C70.6983 72.7304 70.5628 72.7866 70.4628 72.8865C70.3629 72.9864 70.3068 73.1219 70.3068 73.2632V73.9472C70.3068 75.0452 71.2104 76.4672 72.1752 76.4672C72.3298 76.4648 72.482 76.4292 72.6216 76.3628C71.9628 75.2648 72.4344 73.49 74.04 73.4Z" fill="black"/>
<path opacity="0.2" d="M80.2032 73.292C80.2788 73.292 80.3544 73.292 80.4264 73.292V73.2452C80.4254 73.1036 80.3685 72.9681 80.268 72.8682C80.1675 72.7684 80.0316 72.7124 79.89 72.7124H77.2224C77.0814 72.7134 76.9464 72.7698 76.8467 72.8695C76.747 72.9692 76.6905 73.1042 76.6896 73.2452V73.9292C76.6896 75.0272 77.5968 76.4492 78.558 76.4492C78.6259 76.4482 78.6935 76.4397 78.7596 76.424C77.9244 75.3404 78.4032 73.292 80.2032 73.292Z" fill="black"/>
<path opacity="0.2" d="M86.82 73.526V73.256C86.819 73.115 86.7626 72.98 86.6629 72.8803C86.5632 72.7806 86.4282 72.7242 86.2872 72.7232H83.6196C83.4779 72.7232 83.3421 72.7792 83.2416 72.8791C83.1411 72.9789 83.0841 73.1144 83.0832 73.256V73.94C83.0832 75.038 83.9904 76.46 84.9516 76.46C85.0605 76.4583 85.1685 76.4401 85.272 76.406C84.6852 75.29 85.2 73.5692 86.82 73.526Z" fill="black"/>
<path opacity="0.2" d="M92.9112 73.3388C93.0123 73.3402 93.1133 73.3475 93.2136 73.3604V73.256C93.2136 73.1147 93.1575 72.9792 93.0575 72.8793C92.9576 72.7794 92.8221 72.7232 92.6808 72.7232H90.0132C89.9432 72.7232 89.8739 72.737 89.8093 72.7638C89.7447 72.7906 89.6859 72.8298 89.6365 72.8793C89.587 72.9287 89.5477 72.9875 89.521 73.0521C89.4942 73.1168 89.4804 73.1861 89.4804 73.256V73.94C89.4804 75.038 90.384 76.46 91.3452 76.46C91.3788 76.462 91.4124 76.462 91.446 76.46C90.6396 75.3476 91.1292 73.3388 92.9112 73.3388Z" fill="black"/>
<path opacity="0.2" d="M99.3588 73.616C99.4415 73.6104 99.5245 73.6104 99.6072 73.616V73.256C99.6072 73.1147 99.5511 72.9792 99.4511 72.8793C99.3512 72.7794 99.2157 72.7232 99.0744 72.7232H96.4068C96.2655 72.7232 96.13 72.7794 96.0301 72.8793C95.9301 72.9792 95.874 73.1147 95.874 73.256V73.94C95.874 75.02 96.7704 76.46 97.7316 76.46C97.17 75.326 97.7136 73.616 99.3588 73.616Z" fill="black"/>
<path opacity="0.2" d="M84.2532 90.0896V86.54C84.2532 86.2995 84.0582 86.1044 83.8176 86.1044H34.9296C34.689 86.1044 34.494 86.2995 34.494 86.54V90.0896C34.494 90.3302 34.689 90.5252 34.9296 90.5252H83.8176C84.0582 90.5252 84.2532 90.3302 84.2532 90.0896Z" fill="black"/>
<path opacity="0.2" d="M90.87 87.3356V86.9756C90.87 86.9056 90.8562 86.8364 90.8294 86.7717C90.8027 86.7071 90.7634 86.6484 90.7139 86.5989C90.6645 86.5494 90.6057 86.5102 90.5411 86.4834C90.4764 86.4566 90.4072 86.4428 90.3372 86.4428H87.6696C87.5996 86.4428 87.5303 86.4566 87.4657 86.4834C87.4011 86.5102 87.3423 86.5494 87.2928 86.5989C87.2434 86.6484 87.2041 86.7071 87.1773 86.7717C87.1506 86.8364 87.1368 86.9056 87.1368 86.9756V87.6596C87.1368 88.7576 88.0404 90.1796 89.0052 90.1796C89.0854 90.1777 89.165 90.1668 89.2428 90.1472C88.71 89.024 89.2536 87.3464 90.87 87.3356Z" fill="black"/>
<path opacity="0.2" d="M31.3008 87.1052C31.4057 87.106 31.5103 87.1144 31.614 87.1304V86.9792C31.613 86.8376 31.5561 86.7021 31.4556 86.6023C31.3551 86.5024 31.2192 86.4464 31.0776 86.4464H28.41C28.269 86.4474 28.134 86.5038 28.0343 86.6035C27.9346 86.7032 27.8781 86.8382 27.8772 86.9792V87.6632C27.8772 88.7612 28.7844 90.1832 29.7456 90.1832H29.8068C29.04 89.0672 29.544 87.1052 31.3008 87.1052Z" fill="black"/>
<path opacity="0.2" d="M15.252 12.02H103.495C104.101 12.02 104.683 12.2609 105.112 12.6896C105.54 13.1183 105.781 13.6997 105.781 14.306V34.466H12.966V14.306C12.966 13.6997 13.2068 13.1183 13.6355 12.6896C14.0642 12.2609 14.6457 12.02 15.252 12.02Z" fill="black"/>
<path d="M96.2808 15.8216H22.4808C21.8654 10.7108 20.7808 5.66756 19.2408 0.755615H99.5352C97.9709 5.66194 96.8811 10.7071 96.2808 15.8216Z" fill="white"/>
<mask id="mask1_2_506" style="mask-type:luminance" maskUnits="userSpaceOnUse" x="19" y="0" width="81" height="16">
<path d="M96.2808 15.8216H22.4808C21.8654 10.7108 20.7808 5.66756 19.2408 0.755615H99.5352C97.9709 5.66194 96.8811 10.7071 96.2808 15.8216Z" fill="white"/>
</mask>
<g mask="url(#mask1_2_506)">
<path opacity="0.2" d="M97.008 10.9652C96.4716 13.8956 96.288 15.8216 96.288 15.8216H22.488C22.488 15.8216 22.3008 13.9316 21.75 10.9652H97.008Z" fill="black"/>
</g>
<path d="M96.2808 15.8216H22.4808C21.8654 10.7108 20.7808 5.66756 19.2408 0.755615H99.5352C97.9709 5.66194 96.8811 10.7071 96.2808 15.8216Z" stroke="#263238" stroke-linecap="round" stroke-linejoin="round"/>
<path d="M95.2764 28.508H22.8768V58.2944H95.2764V28.508Z" fill="#263238"/>
<g opacity="0.4">
<path d="M57.2712 55.6592L57.6528 55.6772C58.1328 48.2492 58.6128 40.8092 59.0928 33.3572C58.4808 40.8116 57.8736 48.2456 57.2712 55.6592Z" fill="white"/>
<path d="M56.04 55.5656L56.4216 55.598C57.2544 48.218 58.086 40.8056 58.9164 33.3608C57.9588 40.8104 57 48.212 56.04 55.5656Z" fill="white"/>
<path d="M54.8412 55.4288C54.9672 55.4288 55.0968 55.4576 55.2228 55.472C56.4036 48.1712 57.5916 40.7996 58.7868 33.3572C57.4668 40.8068 56.1516 48.164 54.8412 55.4288Z" fill="white"/>
<path d="M53.628 55.2452L54.0132 55.3064C55.5444 48.1064 57.0876 40.7864 58.6428 33.3464C56.9628 40.7936 55.2912 48.0932 53.628 55.2452Z" fill="white"/>
<path d="M52.4184 55.0184L52.8072 55.0976C54.6792 48.0344 56.5764 40.7864 58.4988 33.3536C56.454 40.7888 54.4272 48.0104 52.4184 55.0184Z" fill="white"/>
<path d="M51.216 54.7448L51.6048 54.842C53.8116 47.9372 56.0796 40.7768 58.3548 33.35C55.9464 40.7768 53.5452 47.9048 51.216 54.7448Z" fill="white"/>
<path d="M50.0172 54.4208L50.4096 54.536C52.9296 47.8256 55.5684 40.7624 58.2108 33.3428C55.4352 40.7624 52.6704 47.786 50.0172 54.4208Z" fill="white"/>
<path d="M48.84 54.0536L49.2324 54.1796C52.08 47.6996 55.068 40.748 58.0776 33.3392C54.9204 40.748 51.7956 47.6492 48.84 54.0536Z" fill="white"/>
<path d="M47.6448 53.6324L48.0408 53.7764C51.1944 47.5412 54.546 40.73 57.9228 33.332C54.4056 40.73 50.9136 47.48 47.6448 53.6324Z" fill="white"/>
<path d="M46.4784 53.1572L46.8744 53.3228C50.316 47.3684 54.0312 40.7228 57.7788 33.3248C53.88 40.7084 50.0316 47.318 46.4784 53.1572Z" fill="white"/>
<path d="M45.3228 52.6244L45.7188 52.8152C49.434 47.1812 53.5128 40.6832 57.6348 33.3176C53.3652 40.6832 49.146 47.12 45.3228 52.6244Z" fill="white"/>
<path d="M44.1852 52.034L44.5812 52.25C48.5412 46.9688 52.9944 40.6544 57.4908 33.3068C53.3899 39.7801 48.9485 46.0313 44.1852 52.034Z" fill="white"/>
<path d="M43.08 51.386C43.2096 51.4688 43.3464 51.5444 43.4796 51.6236C48.4759 45.8042 53.1117 39.6848 57.3612 33.2996C53.0123 39.6423 48.2411 45.6848 43.08 51.386Z" fill="white"/>
<path d="M41.9748 50.6696L42.3672 50.9396C47.7585 45.4497 52.7184 39.5522 57.2028 33.2996C52.6253 39.5083 47.5311 45.319 41.9748 50.6696Z" fill="white"/>
<path d="M57.0588 33.278C51.2664 40.532 45.6 46.0652 40.92 49.8884L41.3052 50.1872C47.083 45.0655 52.3582 39.4033 57.0588 33.278Z" fill="white"/>
<path d="M56.9148 33.2672C50.7444 40.4672 44.7144 45.7304 39.894 49.0424L40.2756 49.37C45.0312 45.8492 50.9064 40.4852 56.9148 33.2672Z" fill="white"/>
<path d="M56.76 33.2564C50.2188 40.4024 43.8468 45.356 38.9184 48.1208C39.0372 48.2432 39.156 48.3656 39.2784 48.4808C44.16 45.4928 50.3916 40.4204 56.76 33.2564Z" fill="white"/>
<path d="M56.6268 33.242C49.7292 40.316 43.026 44.942 38.0184 47.138L38.3784 47.5304C43.3356 45.0932 49.8876 40.3376 56.6268 33.242Z" fill="white"/>
<path d="M37.1904 46.0868C37.2948 46.2308 37.4028 46.3748 37.5108 46.5152C42.5328 44.6612 49.3908 40.2368 56.4864 33.2312C49.2468 40.2044 42.2412 44.4848 37.1904 46.0868Z" fill="white"/>
<path d="M36.456 44.9924C36.5496 45.1436 36.6468 45.2948 36.744 45.446C41.784 44.1788 48.9408 40.1072 56.3424 33.206C48.7968 40.0676 41.514 43.988 36.456 44.9924Z" fill="white"/>
<path d="M35.8296 43.88C35.9088 44.0384 35.9916 44.1932 36.0744 44.3516C41.1144 43.6676 48.516 39.956 56.1984 33.2096C48.39 39.8912 40.8696 43.448 35.8296 43.88Z" fill="white"/>
<path d="M35.3184 42.7424C35.3832 42.9008 35.4516 43.0628 35.52 43.2212C40.5312 43.0988 48.12 39.7544 56.04 33.1844C48.03 39.686 40.3224 42.8684 35.3184 42.7424Z" fill="white"/>
<path d="M58.4916 55.7096H58.8696C58.9848 48.2696 59.1048 40.82 59.2296 33.3608C58.9776 40.8152 58.7316 48.2648 58.4916 55.7096Z" fill="white"/>
<path d="M59.7084 55.7168H60.09C59.85 48.2768 59.61 40.8272 59.37 33.368L59.7084 55.7168Z" fill="white"/>
<path d="M60.9252 55.6844H61.3068C60.7068 48.2684 60.1068 40.8284 59.5068 33.3644C59.9796 40.8188 60.4524 48.2588 60.9252 55.6844Z" fill="white"/>
<path d="M62.16 55.6088L62.5416 55.58C61.5816 48.2192 60.6216 40.8128 59.6616 33.3608C60.4872 40.8128 61.32 48.2288 62.16 55.6088Z" fill="white"/>
<path d="M63.3588 55.4936L63.7404 55.4468C62.4348 48.1724 61.1148 40.8092 59.7804 33.3572C60.9828 40.8092 62.1756 48.188 63.3588 55.4936Z" fill="white"/>
<path d="M64.572 55.3316L64.9572 55.274C63.3012 48.11 61.6272 40.8044 59.9352 33.3572C61.4904 40.8068 63.036 48.1316 64.572 55.3316Z" fill="white"/>
<path d="M65.7816 55.1264L66.1668 55.0544C64.1676 48.032 62.1384 40.7984 60.0792 33.3536C61.9944 40.7984 63.8952 48.056 65.7816 55.1264Z" fill="white"/>
<path d="M66.984 54.8744L67.3764 54.7844C65.0436 47.9444 62.6388 40.7912 60.2232 33.35C62.5056 40.7924 64.7592 47.9672 66.984 54.8744Z" fill="white"/>
<path d="M68.1864 54.5792L68.5752 54.4676C65.9184 47.8184 63.15 40.7876 60.3672 33.3428C63.0132 40.7804 65.6484 47.84 68.1864 54.5792Z" fill="white"/>
<path d="M69.378 54.23L69.774 54.1004C66.7968 47.6852 63.654 40.7804 60.5112 33.3392C63.528 40.766 66.5232 47.7248 69.378 54.23Z" fill="white"/>
<path d="M70.5624 53.8304L70.9584 53.6828C67.6824 47.5304 64.1832 40.7516 60.6552 33.332C64.0428 40.7516 67.4016 47.5772 70.5624 53.8304Z" fill="white"/>
<path d="M71.736 53.3804C71.8692 53.3228 72.006 53.2724 72.1356 53.2148C68.5716 47.3612 64.7052 40.7336 60.7992 33.3248C64.5612 40.7336 68.28 47.4116 71.736 53.3804Z" fill="white"/>
<path d="M72.8988 52.88L73.2984 52.6892C69.4644 47.1704 65.2272 40.7156 60.9432 33.3212C65.0796 40.7084 69.1692 47.228 72.8988 52.88Z" fill="white"/>
<path d="M74.04 52.3148C74.1732 52.2464 74.3064 52.1708 74.436 52.0988C69.6551 46.0752 65.1969 39.8024 61.08 33.3068C65.6016 40.6868 70.08 47.0192 74.04 52.3148Z" fill="white"/>
<path d="M75.1704 51.692L75.5736 51.4544C70.3899 45.7323 65.5983 39.6669 61.2312 33.2996C65.4967 39.71 70.1519 45.8523 75.1704 51.692Z" fill="white"/>
<path d="M61.3752 33.2888C65.8776 39.5707 70.8593 45.4947 76.2756 51.008L76.6752 50.738C71.0911 45.3646 65.9727 39.5273 61.3752 33.2888Z" fill="white"/>
<path d="M61.5192 33.278C66.2418 39.4327 71.5463 45.1182 77.3592 50.2556C77.4924 50.1584 77.6184 50.0576 77.748 49.9568C73.0536 46.1336 67.344 40.5752 61.5192 33.278Z" fill="white"/>
<path d="M61.6632 33.2672C67.7112 40.5284 73.6224 45.914 78.3924 49.4348C78.522 49.3268 78.6552 49.2188 78.7812 49.1072C73.9428 45.8024 67.8732 40.5248 61.6632 33.2672Z" fill="white"/>
<path d="M61.8 33.2564C68.226 40.4564 74.49 45.5648 79.386 48.5492C79.512 48.4304 79.6308 48.3044 79.746 48.1892C74.814 45.428 68.3952 40.4564 61.8 33.2564Z" fill="white"/>
<path d="M61.9512 33.242C68.7444 40.3916 75.3468 45.1688 80.3112 47.588L80.6712 47.192C75.6636 45.0212 68.9064 40.3772 61.9512 33.242Z" fill="white"/>
<path d="M81.2004 46.5656C81.312 46.4216 81.4164 46.2776 81.5244 46.13C76.4664 44.564 69.396 40.2692 62.0844 33.2312C69.2412 40.298 76.1676 44.7368 81.2004 46.5656Z" fill="white"/>
<path d="M81.9816 45.482L82.2768 45.0212C77.2116 44.0672 69.8604 40.136 62.2356 33.2168C69.72 40.1756 76.92 44.258 81.9816 45.482Z" fill="white"/>
<path d="M82.68 44.3624C82.7664 44.204 82.8492 44.0456 82.932 43.8836C77.892 43.5236 70.2924 39.9632 62.412 33.2024C70.1448 40.0208 77.64 43.7396 82.68 44.3624Z" fill="white"/>
<path d="M62.52 33.1844C70.5264 39.83 78.216 43.1744 83.22 43.2248C83.292 43.0628 83.3604 42.9008 83.4288 42.7388C78.432 42.944 70.6416 39.758 62.52 33.1844Z" fill="white"/>
</g>
<path opacity="0.2" d="M48.84 33.8972C47.4756 37.3964 48.9516 47.5772 58.7976 47.5772C68.6436 47.5772 72.2184 40.424 71.8188 36.0032L84.9624 33.8864C84.9624 33.8864 88.9908 45.0176 80.4372 52.8044C71.8836 60.5912 42.234 60.0872 35.9664 54.1688C29.6988 48.2504 33.1764 36.5576 33.1764 36.5576L48.84 33.8972Z" fill="black"/>
<path d="M106.526 18.7988V16.3436C106.526 16.2528 106.555 16.1642 106.609 16.091C106.663 16.0178 106.738 15.9638 106.825 15.9368L108.625 15.3752V12.92C108.625 12.6259 108.742 12.3439 108.95 12.136C109.158 11.928 109.44 11.8112 109.734 11.8112H111.894C112 11.8092 112.103 11.8486 112.181 11.9212C112.259 11.9937 112.306 12.0937 112.312 12.2V12.992C112.312 13.1002 112.269 13.2041 112.193 13.2809C112.116 13.3578 112.013 13.4015 111.905 13.4024H109.158V15.8036C109.157 15.876 109.137 15.9469 109.101 16.0098C109.066 16.0727 109.014 16.1256 108.953 16.1636L107.419 17.0924V18.8024L106.526 18.7988Z" fill="#999999" stroke="#263238" stroke-linecap="round" stroke-linejoin="round"/>
<path d="M108.895 18.7988H106.526V25.8836H108.895V18.7988Z" fill="#263238"/>
<path d="M111.858 18.1976H108.895V26.4848H111.858V18.1976Z" fill="#757575"/>
<mask id="mask2_2_506" style="mask-type:luminance" maskUnits="userSpaceOnUse" x="108" y="18" width="4" height="9">
<path d="M111.858 18.1976H108.895V26.4848H111.858V18.1976Z" fill="white"/>
</mask>
<g mask="url(#mask2_2_506)">
<path opacity="0.2" d="M111.851 23.2448H108.895V26.4848H111.851V23.2448Z" fill="black"/>
</g>
<path d="M111.858 18.1976H108.895V26.4848H111.858V18.1976Z" stroke="#263238" stroke-linecap="round" stroke-linejoin="round"/>
<path d="M9.85198 25.88H12.2208V18.7952H9.85198V25.88Z" fill="#263238"/>
<path d="M6.88919 26.4812H9.85199L9.85199 18.194H6.88919L6.88919 26.4812Z" fill="#757575"/>
<mask id="mask3_2_506" style="mask-type:luminance" maskUnits="userSpaceOnUse" x="6" y="18" width="4" height="9">
<path d="M6.88919 26.4812H9.85199L9.85199 18.194H6.88919L6.88919 26.4812Z" fill="white"/>
</mask>
<g mask="url(#mask3_2_506)">
<path opacity="0.2" d="M9.85559 23.2448H6.89279V26.4056H9.85559V23.2448Z" fill="black"/>
</g>
<path d="M6.88919 26.4812H9.85199L9.85199 18.194H6.88919L6.88919 26.4812Z" stroke="#263238" stroke-linecap="round" stroke-linejoin="round"/>
<path d="M11.8644 22.7624C12.0783 22.2012 12.1114 21.5871 11.959 21.0062C11.8067 20.4252 11.4766 19.9064 11.0148 19.5224L9.27238 18.0824C9.16153 17.989 9.0326 17.9194 8.89365 17.878C8.7547 17.8366 8.60872 17.8244 8.4648 17.8419C8.32089 17.8595 8.18215 17.9065 8.05723 17.9801C7.93232 18.0537 7.82391 18.1523 7.73879 18.2696L0.830386 27.7988C0.698935 27.9771 0.628261 28.1929 0.628787 28.4144V38.6492C0.628774 38.7866 0.656059 38.9226 0.709061 39.0493C0.762064 39.1761 0.839724 39.291 0.93753 39.3875C1.03534 39.4839 1.15134 39.56 1.2788 39.6113C1.40625 39.6625 1.54262 39.6879 1.67999 39.686C1.95496 39.686 2.21868 39.5768 2.41312 39.3823C2.60755 39.1879 2.71679 38.9242 2.71679 38.6492V30.3368C2.71742 30.1316 2.78155 29.9317 2.90039 29.7644L8.06639 22.5644C8.11162 22.5012 8.16948 22.4481 8.23632 22.4084C8.30315 22.3687 8.3775 22.3433 8.45466 22.3338C8.53181 22.3243 8.61009 22.331 8.68454 22.3533C8.75899 22.3757 8.828 22.4132 8.88718 22.4636L9.83759 23.27C10.0729 23.4697 10.3714 23.5794 10.68 23.5796C10.9366 23.5781 11.1869 23.4993 11.3981 23.3535C11.6094 23.2078 11.7719 23.0018 11.8644 22.7624Z" fill="#3ECC5F" stroke="#263238" stroke-linecap="round" stroke-linejoin="round"/>
<path d="M10.4388 21.83C10.7112 21.83 10.932 21.6092 10.932 21.3368C10.932 21.0644 10.7112 20.8436 10.4388 20.8436C10.1664 20.8436 9.94559 21.0644 9.94559 21.3368C9.94559 21.6092 10.1664 21.83 10.4388 21.83Z" fill="#999999" stroke="#263238" stroke-linecap="round" stroke-linejoin="round"/>
<path d="M104.33 15.3752H14.4204V29.3H104.33V15.3752Z" fill="#263238"/>
<path opacity="0.2" d="M103.031 16.4228H15.684C15.4096 16.4228 15.1872 16.6452 15.1872 16.9196V19.1732C15.1872 19.4476 15.4096 19.67 15.684 19.67H103.031C103.305 19.67 103.528 19.4476 103.528 19.1732V16.9196C103.528 16.6452 103.305 16.4228 103.031 16.4228Z" fill="white"/>
<path d="M96.2808 32.1008H22.4808C20.401 27.347 19.2992 22.2233 19.2408 17.0348H99.5352C99.5352 24.0116 96.2808 32.1008 96.2808 32.1008Z" fill="white"/>
<mask id="mask4_2_506" style="mask-type:luminance" maskUnits="userSpaceOnUse" x="19" y="17" width="81" height="16">
<path d="M96.2808 32.1008H22.4808C20.401 27.347 19.2992 22.2233 19.2408 17.0348H99.5352C99.5352 24.0116 96.2808 32.1008 96.2808 32.1008Z" fill="white"/>
</mask>
<g mask="url(#mask4_2_506)">
<g opacity="0.7">
<path d="M28.4496 30.9704C28.4496 30.9704 30.066 30.884 30.9696 30.3404C31.8732 29.7968 31.8084 30.83 32.3268 30.8984C32.8452 30.9668 34.0692 30.5384 34.7172 30.5384C35.3652 30.5384 34.872 30.9344 35.6028 30.8984C36.3336 30.8624 35.9412 30.9344 36.3228 30.8624L39.4512 30.3404C39.4512 30.3404 41.0388 30.0344 41.3592 30.1892C41.6796 30.344 42.1008 31.1072 42.5688 30.9092C43.0368 30.7112 42.7884 30.5492 43.494 30.5492C43.9302 30.5513 44.364 30.6143 44.7828 30.7364C44.7828 30.7364 44.8476 30.5528 45.1716 30.5492H45.7512C45.7512 30.5492 46.9788 30.8732 47.1732 30.8732C47.3676 30.8732 48.8184 30.5528 48.8688 30.5492C48.9192 30.5456 50.3088 30.1892 50.3088 30.1892C50.6036 30.4974 50.9771 30.719 51.3888 30.83C51.9144 30.8984 52.4688 30.758 52.8648 30.9344C53.2608 31.1108 54.564 30.8624 54.564 30.8624C54.8749 30.8645 55.1853 30.8885 55.4928 30.9344C55.896 31.0265 56.3161 31.0141 56.7132 30.8984C57.4432 30.7054 58.2093 30.6931 58.9452 30.8624C60.1152 31.0748 61.1916 30.542 61.6884 30.5384C62.1852 30.5348 64.1724 30.758 64.8564 30.758C65.5404 30.758 67.3512 31.0028 68.6112 30.8624C69.8712 30.722 70.6956 31.0388 71.5416 31.0388C72.3876 31.0388 73.2912 31.0028 73.4856 31.0028C73.68 31.0028 74.616 30.3908 75.9552 30.5384C77.2944 30.686 76.1028 30.3548 76.9272 30.5384C77.7516 30.722 78.4032 30.8984 78.7524 30.9344C79.0325 30.9508 79.3135 30.9387 79.5912 30.8984L81.0312 30.794H88.2096" stroke="#263238" stroke-linecap="round" stroke-linejoin="round"/>
<path d="M26.9556 28.1912C26.9556 28.1912 31.4016 28.1912 32.2044 28.1192C33.0072 28.0472 33.4356 27.6368 33.864 27.6368C34.2924 27.6368 36.456 28.0472 36.456 28.0472C36.5191 27.913 36.6221 27.8015 36.751 27.7281C36.8799 27.6546 37.0283 27.6227 37.176 27.6368C37.7628 27.6368 37.464 27.6908 38.004 27.9068C38.544 28.1228 38.2632 27.9068 38.5476 28.1192C38.9715 28.3096 39.4198 28.4405 39.8796 28.508C39.8796 28.508 41.8848 28.6016 41.9604 28.1192C42.036 27.6368 43.0404 28.508 43.0404 28.508C43.0404 28.508 45.762 28.1192 46.8132 28.1192C47.8644 28.1192 50.4996 27.9068 50.4996 27.9068C50.4996 27.9068 52.6596 28.1912 52.7604 28.1912C52.8612 28.1912 53.2176 28.7564 53.6028 28.508C53.988 28.2596 54.3588 27.9752 54.816 28.0472C55.2406 28.1525 55.6514 28.3072 56.04 28.508L57.0444 27.9752L58.1964 28.0472C58.1964 28.0472 59.37 28.8284 60.2088 28.508C60.8474 28.2528 61.4712 27.9619 62.0772 27.6368L63.1104 28.508H63.7872L65.7924 28.1192C65.9467 28.3089 66.1548 28.4475 66.3892 28.5169C66.6237 28.5863 66.8737 28.5832 67.1064 28.508C67.956 28.2632 76.074 28.508 78.1404 28.508C80.2068 28.508 80.6604 27.9752 80.6604 27.9752L82.2516 28.508H90.1716" stroke="#263238" stroke-linecap="round" stroke-linejoin="round"/>
</g>
<path opacity="0.2" d="M97.0332 30.02C96.5976 31.316 96.2808 32.1008 96.2808 32.1008H22.4808C22.4808 32.1008 22.1208 31.3448 21.6276 30.02H97.0332Z" fill="black"/>
<path opacity="0.2" d="M98.5704 24.5696C98.322 25.6496 98.0484 26.7044 97.7784 27.6368H20.8248C20.5584 26.7224 20.2848 25.6892 20.0472 24.5696H98.5704Z" fill="black"/>
</g>
<path d="M96.2808 32.1008H22.4808C20.401 27.347 19.2992 22.2233 19.2408 17.0348H99.5352C99.5352 24.0116 96.2808 32.1008 96.2808 32.1008Z" stroke="#263238" stroke-linecap="round" stroke-linejoin="round"/>
<path d="M14.4024 14.6588H12.2028V30.0236H14.4024V14.6588Z" fill="#757575"/>
<mask id="mask5_2_506" style="mask-type:luminance" maskUnits="userSpaceOnUse" x="12" y="14" width="3" height="17">
<path d="M14.4024 14.6588H12.2028V30.0236H14.4024V14.6588Z" fill="white"/>
</mask>
<g mask="url(#mask5_2_506)">
<path opacity="0.2" d="M14.3592 25.466H12.2172V30.0236H14.3592V25.466Z" fill="black"/>
</g>
<path d="M14.4024 14.6588H12.2028V30.0236H14.4024V14.6588Z" stroke="#263238" stroke-linecap="round" stroke-linejoin="round"/>
<path d="M106.544 14.6588H104.345V30.0236H106.544V14.6588Z" fill="#757575"/>
<mask id="mask6_2_506" style="mask-type:luminance" maskUnits="userSpaceOnUse" x="104" y="14" width="3" height="17">
<path d="M106.544 14.6588H104.345V30.0236H106.544V14.6588Z" fill="white"/>
</mask>
<g mask="url(#mask6_2_506)">
<path opacity="0.2" d="M106.544 25.466H104.327V30.0236H106.544V25.466Z" fill="black"/>
</g>
<path d="M106.544 14.6588H104.345V30.0236H106.544V14.6588Z" stroke="#263238" stroke-linecap="round" stroke-linejoin="round"/>
<path d="M104.363 14.0144V25.2212H14.3844V14.0144H13.5204V25.9736H105.227V14.0144H104.363Z" fill="#999999" stroke="#263238" stroke-linecap="round" stroke-linejoin="round"/>
<path d="M109.68 32.8928V58.0244C109.68 58.4483 109.512 58.8549 109.212 59.1547C108.912 59.4544 108.506 59.6228 108.082 59.6228H10.6548C10.2309 59.6228 9.82432 59.4544 9.52456 59.1547C9.2248 58.8549 9.0564 58.4483 9.0564 58.0244V32.8928C9.0564 32.4689 9.2248 32.0623 9.52456 31.7626C9.82432 31.4628 10.2309 31.2944 10.6548 31.2944H55.5468V32.8928C55.5468 32.8928 47.8824 39.542 34.6668 41.9936C36.5604 50.5652 46.9068 57.1136 59.3916 57.1136C71.8764 57.1136 82.2228 50.558 84.12 41.9936C70.8864 39.542 63.222 32.8928 63.222 32.8928V31.28H108.092C108.303 31.2814 108.51 31.3243 108.704 31.4061C108.898 31.488 109.073 31.6073 109.221 31.7571C109.368 31.9069 109.485 32.0843 109.564 32.2792C109.642 32.4741 109.682 32.6826 109.68 32.8928Z" fill="#3ECC5F" stroke="#263238" stroke-linecap="round" stroke-linejoin="round"/>
<path d="M109.68 32.8928V58.0244C109.68 58.2346 109.639 58.4428 109.558 58.6369C109.477 58.8311 109.359 59.0075 109.211 59.1559C109.062 59.3044 108.885 59.4221 108.691 59.5022C108.496 59.5823 108.288 59.6233 108.078 59.6228H10.6548C10.4446 59.6233 10.2363 59.5823 10.042 59.5022C9.84766 59.4221 9.67103 59.3044 9.52223 59.1559C9.37342 59.0075 9.25536 58.8311 9.17481 58.6369C9.09426 58.4428 9.05279 58.2346 9.0528 58.0244V32.8928C9.05375 32.4682 9.22283 32.0613 9.52306 31.7611C9.82329 31.4609 10.2302 31.2918 10.6548 31.2908H55.5468V32.8928C55.5468 32.8928 47.8788 39.5384 34.6668 41.9936C36.5604 50.5652 46.9068 57.1136 59.3952 57.1136C71.8836 57.1136 82.2228 50.558 84.12 41.9936C70.8864 39.5384 63.222 32.8928 63.222 32.8928V31.28H108.092C108.517 31.2838 108.922 31.4558 109.22 31.7581C109.517 32.0605 109.683 32.4686 109.68 32.8928Z" fill="#3ECC5F"/>
<mask id="mask7_2_506" style="mask-type:luminance" maskUnits="userSpaceOnUse" x="9" y="31" width="101" height="29">
<path d="M109.68 32.8928V58.0244C109.68 58.2346 109.639 58.4428 109.558 58.6369C109.477 58.8311 109.359 59.0075 109.211 59.1559C109.062 59.3044 108.885 59.4221 108.691 59.5022C108.496 59.5823 108.288 59.6233 108.078 59.6228H10.6548C10.4446 59.6233 10.2363 59.5823 10.042 59.5022C9.84766 59.4221 9.67103 59.3044 9.52223 59.1559C9.37342 59.0075 9.25536 58.8311 9.17481 58.6369C9.09426 58.4428 9.05279 58.2346 9.0528 58.0244V32.8928C9.05375 32.4682 9.22283 32.0613 9.52306 31.7611C9.82329 31.4609 10.2302 31.2918 10.6548 31.2908H55.5468V32.8928C55.5468 32.8928 47.8788 39.5384 34.6668 41.9936C36.5604 50.5652 46.9068 57.1136 59.3952 57.1136C71.8836 57.1136 82.2228 50.558 84.12 41.9936C70.8864 39.5384 63.222 32.8928 63.222 32.8928V31.28H108.092C108.517 31.2838 108.922 31.4558 109.22 31.7581C109.517 32.0605 109.683 32.4686 109.68 32.8928Z" fill="white"/>
</mask>
<g mask="url(#mask7_2_506)">
<path opacity="0.2" d="M107.52 33.278V56.48C107.52 56.6343 107.489 56.787 107.43 56.9294C107.371 57.0718 107.284 57.2011 107.175 57.3099C107.065 57.4186 106.936 57.5047 106.793 57.563C106.65 57.6214 106.497 57.651 106.343 57.65H11.6124C11.4586 57.6505 11.3063 57.6205 11.1641 57.5619C11.0219 57.5033 10.8928 57.4171 10.784 57.3084C10.6753 57.1996 10.5891 57.0705 10.5305 56.9283C10.4719 56.7862 10.4419 56.6338 10.4424 56.48V33.278C10.4419 33.1239 10.4718 32.9712 10.5303 32.8286C10.5889 32.6861 10.6749 32.5564 10.7836 32.4471C10.8922 32.3378 11.0213 32.2509 11.1635 32.1915C11.3058 32.1321 11.4583 32.1013 11.6124 32.1008H55.5324V32.8928C55.5324 32.8928 47.8644 39.5384 34.6524 41.9936C36.546 50.5652 46.8924 57.1136 59.3808 57.1136C71.8692 57.1136 82.2084 50.558 84.1056 41.9936C70.872 39.5384 63.2076 32.8928 63.2076 32.8928V32.1008H106.354C106.664 32.1037 106.961 32.2289 107.179 32.4494C107.397 32.6699 107.52 32.9677 107.52 33.278Z" fill="white"/>
</g>
<path d="M109.68 32.8928V58.0244C109.68 58.2346 109.639 58.4428 109.558 58.6369C109.477 58.8311 109.359 59.0075 109.211 59.1559C109.062 59.3044 108.885 59.4221 108.691 59.5022C108.496 59.5823 108.288 59.6233 108.078 59.6228H10.6548C10.4446 59.6233 10.2363 59.5823 10.042 59.5022C9.84766 59.4221 9.67103 59.3044 9.52223 59.1559C9.37342 59.0075 9.25536 58.8311 9.17481 58.6369C9.09426 58.4428 9.05279 58.2346 9.0528 58.0244V32.8928C9.05375 32.4682 9.22283 32.0613 9.52306 31.7611C9.82329 31.4609 10.2302 31.2918 10.6548 31.2908H55.5468V32.8928C55.5468 32.8928 47.8788 39.5384 34.6668 41.9936C36.5604 50.5652 46.9068 57.1136 59.3952 57.1136C71.8836 57.1136 82.2228 50.558 84.12 41.9936C70.8864 39.5384 63.222 32.8928 63.222 32.8928V31.28H108.092C108.517 31.2838 108.922 31.4558 109.22 31.7581C109.517 32.0605 109.683 32.4686 109.68 32.8928Z" stroke="#263238" stroke-linecap="round" stroke-linejoin="round"/>
<path opacity="0.2" d="M77.496 67.0712L82.2804 80.4164C82.2804 80.4164 84.3504 65.7284 85.5852 65.7284C86.82 65.7284 89.4804 73.76 89.4804 73.76C89.4804 73.76 91.122 69.5696 92.6772 69.4184C94.2324 69.2672 95.64 79.7072 95.64 79.7072L95.8812 102.88L93.9192 137.926C93.9192 137.926 81.402 124.138 77.7516 120.585C74.1012 117.032 70.6128 109.213 69.6048 107.625C68.5968 106.038 68.3412 97.7252 68.3412 97.7252C69.6174 96.0923 70.2844 94.0656 70.2276 91.994C70.2276 91.994 73.1652 87.0764 72.9852 83.4476C72.8052 79.8188 72.3516 65.7176 77.496 67.0712Z" fill="black" fill-opacity="0.7"/>
<path d="M115.156 131.72L96.2052 141.688C96.2052 141.588 93.714 137.552 90.7044 132.987C89.3436 130.921 87.8748 128.75 86.4816 126.784C84.1992 123.57 81.2976 120.794 81.0492 120.189C80.3292 118.389 74.778 111.65 73.536 109.029C72.294 106.408 72.0096 98.2544 71.4624 96.3356C70.9152 94.4168 72.4848 92.5844 73.7448 91.6916C75.0048 90.7988 76.326 88.4516 76.326 88.4516C76.326 88.4516 74.9328 83.0228 74.9184 80.2616C74.904 77.5004 73.9644 67.8632 75.0876 66.9632C76.2108 66.0632 77.2152 66.4412 77.496 67.0604C78.4176 69.1016 79.2456 74.2352 79.9548 76.6004C80.664 78.9656 81.996 85.8272 82.6512 86.3204C83.3064 86.8136 84.4728 84.9632 84.4728 84.9632C84.4728 84.9632 84.5844 79.2032 84.8328 76.8164L84.4728 69.2564C84.4728 69.2564 83.7996 64.7132 85.3656 64.2812C87.5256 63.6872 88.314 65.0444 88.5588 65.6168C88.8036 66.1892 89.8116 69.4868 89.8116 69.4868L89.8692 69.7136C89.8692 69.7352 89.8692 69.7568 89.8692 69.782V69.8216C89.886 69.884 89.904 69.9524 89.9232 70.0268C89.9628 70.178 90.0096 70.358 90.06 70.5632C90.5388 72.4388 91.4604 76.1936 91.4208 77.1188C91.3668 78.368 90.9312 85.2872 91.5468 86.7236L92.5044 77.1656C92.5044 77.1656 90.96 69.8 91.41 68.738C91.86 67.676 93.9804 68.8496 94.2324 69.2672C94.4844 69.6848 96.5436 72.212 96.9108 73.1768L97.2708 74.1416C97.2708 74.1416 97.7784 71.8592 98.97 72.4532C100.162 73.0472 100.309 75.9488 100.392 77.216C100.475 78.4832 101.339 86.6336 101.472 86.648C101.605 86.6624 102.98 90.896 102.793 93.6932C102.401 99.68 103.438 104.133 103.474 106.43C103.51 108.727 101.778 114.048 101.778 114.048C101.839 114.152 102.97 116.074 103.279 117.763C103.506 119.001 107.542 123.476 110.839 127.036C113.132 129.492 115.055 131.5 115.156 131.72Z" fill="white"/>
<path opacity="0.4" d="M90.708 132.994C89.3472 130.928 87.8784 128.757 86.4852 126.792C84.2028 123.577 81.3012 120.801 81.0528 120.196C80.3328 118.396 74.7816 111.657 73.5396 109.036C72.2976 106.416 72.0132 98.2616 71.466 96.3428C70.9188 94.424 72.4884 92.5916 73.7484 91.6988C75.0084 90.806 76.3296 88.4588 76.3296 88.4588C76.3296 88.4588 74.9364 83.03 74.922 80.2688C74.9076 77.5076 73.968 67.8704 75.0912 66.9704C76.2144 66.0704 77.2188 66.4484 77.4996 67.0676C78.4212 69.1088 79.2492 74.2424 79.9584 76.6076C80.6676 78.9728 81.9996 85.8344 82.6548 86.3276C83.31 86.8208 84.4764 84.9704 84.4764 84.9704C84.4764 84.9704 84.588 79.2104 84.8364 76.8236L84.4764 69.2636C84.4764 69.2636 83.8032 64.7204 85.3692 64.2884C87.5292 63.6944 88.3176 65.0516 88.5624 65.624C88.8072 66.1964 89.8152 69.494 89.8152 69.494L89.8728 69.7208C89.8728 69.7424 89.8728 69.764 89.8728 69.7892V69.8288C89.8872 69.8912 89.9052 69.9596 89.9268 70.034C89.9664 70.1852 90.0132 70.3652 90.0636 70.5704C89.5056 69.6884 88.7388 68.936 87.7128 68.738C84.8328 68.1764 85.4556 71.3804 85.7292 73.3028C85.8843 74.5784 85.854 75.8698 85.6392 77.1368L86.3592 76.7228C85.8408 77.648 85.0992 85.3376 85.0992 87.0476C85.0992 88.7576 83.7456 89.3264 82.5324 88.826C81.3192 88.3256 80.8872 80.4776 79.9656 79.07C79.044 77.6624 76.4808 80.3516 76.3656 82.8104C76.2504 85.2692 78.5436 92.6024 78 94.3304C77.4564 96.0584 77.4636 102.61 77.4636 102.61L76.8012 100.922C76.8444 101.152 76.8012 101.926 75.4152 104.205C74.8946 105.03 74.5579 105.957 74.4281 106.924C74.2982 107.891 74.3783 108.874 74.6628 109.807C75.5088 111.675 79.8 116.6 80.52 117.108C80.52 117.108 81.042 114.969 82.68 115.538C82.1223 116.425 81.7159 117.398 81.4776 118.418C81.1392 119.988 84.5556 120.992 85.6248 122.486C86.28 123.397 86.7192 126.172 90.708 132.994Z" fill="#3ECC5F"/>
<path opacity="0.4" d="M110.861 127.04C107.491 123.645 101.562 120.412 101.922 119.566C102.404 118.429 101.792 116.006 100.756 114.04C99.7188 112.075 101.116 108.885 101.116 108.885L101.756 110.739C102.269 108.601 102.329 106.379 101.933 104.216C101.278 100.54 100.766 101.833 100.766 101.833C100.766 101.833 100.9 98.5208 101.486 96.7136C102.073 94.9064 102.566 90.518 101.756 87.9224C100.946 85.3268 99.2364 85.8164 98.7792 86.7092C98.322 87.602 98.8116 91.0832 99.1896 92.2244C99.5676 93.3656 97.9584 95.2844 97.926 93.8588C97.8936 92.4332 97.2852 88.4588 97.2852 88.4588L98.5056 80.4776L97.2852 74.138C97.2852 74.138 97.7928 71.8556 98.9844 72.4496C100.176 73.0436 100.324 75.9452 100.406 77.2124C100.489 78.4796 101.353 86.63 101.486 86.6444C101.62 86.6588 102.995 90.8924 102.808 93.6896C102.415 99.6764 103.452 104.13 103.488 106.426C103.524 108.723 101.792 114.044 101.792 114.044C101.854 114.148 102.984 116.071 103.294 117.759C103.52 118.998 107.556 123.472 110.854 127.033L110.861 127.04Z" fill="#3ECC5F"/>
<path opacity="0.4" d="M96.9108 73.1768C96.9792 73.3568 97.0368 73.5044 97.08 73.6232C95.9352 70.9628 93.984 71.7872 93.6384 72.5432C93.2928 73.2992 94.4556 77.99 94.7184 78.7172C94.9812 79.4444 93.6744 85.2512 93.4836 87.1736C93.2928 89.096 92.7852 89.4884 92.7852 89.4884C91.4928 89.5856 91.3452 86.018 91.3452 85.5284C91.3703 85.938 91.4502 86.3424 91.5828 86.7308L92.5404 77.1728C92.5404 77.1728 90.96 69.8 91.41 68.738C91.86 67.676 93.9804 68.8496 94.2324 69.2672C94.4844 69.6848 96.5436 72.212 96.9108 73.1768Z" fill="#3ECC5F"/>
<path d="M115.156 131.72C114.911 131.166 103.668 119.84 103.276 117.759C102.959 116.024 101.771 114.04 101.771 114.04C101.771 114.04 103.502 108.73 103.466 106.423C103.43 104.115 102.386 99.6728 102.786 93.686C102.973 90.8888 101.602 86.6552 101.465 86.6408C101.328 86.6264 100.464 78.476 100.385 77.2088C100.306 75.9416 100.158 73.04 98.9628 72.446C97.7676 71.852 97.2636 74.1344 97.2636 74.1344L96.9036 73.1696C96.5436 72.2048 94.4772 69.6776 94.2252 69.26C93.9732 68.8424 91.8564 67.6652 91.4028 68.7308C90.9492 69.7964 92.5296 77.1512 92.5296 77.1512L91.5792 86.72C90.9636 85.28 91.3992 78.3644 91.4532 77.1152C91.5072 75.866 89.8152 69.4832 89.8152 69.4832C89.8152 69.4832 88.8 66.2 88.5624 65.6096C88.3248 65.0192 87.5292 63.68 85.3692 64.274C83.8032 64.706 84.4764 69.2492 84.4764 69.2492L84.8364 76.8092C84.5952 79.2068 84.4764 84.956 84.4764 84.956C84.4764 84.956 83.31 86.8028 82.6548 86.3132C81.9996 85.8236 80.6676 78.9656 79.9584 76.5932C79.2492 74.2208 78.4212 69.0944 77.4996 67.0532C77.2188 66.434 76.2144 66.056 75.0912 66.956C73.968 67.856 74.904 77.4896 74.922 80.2544C74.94 83.0192 76.3296 88.4444 76.3296 88.4444C76.3296 88.4444 75.0084 90.7772 73.7484 91.6844C72.4884 92.5916 70.9188 94.406 71.466 96.3284C72.0132 98.2508 72.2976 106.408 73.5396 109.022C74.7816 111.636 80.3184 118.382 81.0528 120.182C81.3012 120.787 84.2028 123.562 86.4852 126.777C90.9672 133.088 96.2052 141.537 96.2052 141.681" stroke="#263238" stroke-linecap="round" stroke-linejoin="round"/>
<path d="M76.326 88.4624C76.326 88.4624 77.2188 92.8868 77.1864 93.6284C77.1864 93.6284 76.4052 97.0448 76.398 99.2588C75.8513 100.093 75.3607 100.962 74.9292 101.862C74.6268 102.661 74.0868 104.626 74.31 105.721" stroke="#263238" stroke-linecap="round" stroke-linejoin="round"/>
<path d="M74.6952 95C74.6952 95 76.884 95.018 76.7436 95.9396" stroke="#263238" stroke-linecap="round" stroke-linejoin="round"/>
<path d="M76.398 99.2588C76.398 99.2588 74.994 98.6504 74.5008 99.4676" stroke="#263238" stroke-linecap="round" stroke-linejoin="round"/>
<path d="M84.48 84.9704C84.48 84.9704 84.3792 88.3616 83.4864 88.0916" stroke="#263238" stroke-linecap="round" stroke-linejoin="round"/>
<path d="M91.5792 86.72C91.5792 86.72 91.32 88.574 92.0184 89.1464" stroke="#263238" stroke-linecap="round" stroke-linejoin="round"/>
<path d="M97.2744 74.1416C97.2744 74.1416 98.2464 78.8216 98.4696 79.9304C98.6928 81.0392 97.3644 86.6984 97.3896 88.1708C97.4148 89.6432 98.0448 91.7492 97.9584 92.7392" stroke="#263238" stroke-linecap="round" stroke-linejoin="round"/>
<path d="M101.155 109.684C101.155 109.684 100.842 112.741 101.782 114.048" stroke="#263238" stroke-linecap="round" stroke-linejoin="round"/>
<path d="M82.2804 115.732C82.2804 115.732 80.1852 117.64 80.952 119.988" stroke="#263238" stroke-linecap="round" stroke-linejoin="round"/>
<path d="M96.0504 91.9436C96.0828 93.29 95.2944 94.8596 95.2116 96.7208" stroke="#263238" stroke-linecap="round" stroke-linejoin="round"/>
<path d="M89.376 90.7412C89.8224 91.8428 88.8504 94.2404 88.7028 95.1404C88.6437 95.8445 88.7207 96.5534 88.9296 97.2284" stroke="#263238" stroke-linecap="round" stroke-linejoin="round"/>
<path d="M101.922 94.5356C101.742 95.7056 100.914 96.5408 100.756 100.141" stroke="#263238" stroke-linecap="round" stroke-linejoin="round"/>
<path d="M81.4812 90.3992C82.086 91.058 81.6792 94.2044 81.8412 94.7192" stroke="#263238" stroke-linecap="round" stroke-linejoin="round"/>
<path d="M92.76 72.2732C92.76 72.2732 94.8192 70.7648 96.5904 72.5432" stroke="#263238" stroke-linecap="round" stroke-linejoin="round"/>
<path d="M85.668 68.8064C85.668 68.8064 86.028 68.2052 87.7668 68.3528C89.5056 68.5004 89.8152 69.4796 89.8152 69.4796" stroke="#263238" stroke-linecap="round" stroke-linejoin="round"/>
<path d="M80.5884 79.0844C80.5884 79.0844 80.0052 78.224 78.468 78.5084C76.9308 78.7928 76.2468 80.9672 76.2468 80.9672" fill="white"/>
<path d="M80.5884 79.0844C80.5884 79.0844 80.0052 78.224 78.468 78.5084C76.9308 78.7928 76.2468 80.9672 76.2468 80.9672" stroke="#263238" stroke-linecap="round" stroke-linejoin="round"/>
<path d="M101.476 86.648C101.476 86.648 100.194 84.7904 98.6532 85.586" stroke="#263238" stroke-linecap="round" stroke-linejoin="round"/>
<path opacity="0.2" d="M46.878 73.04C49.038 74.714 47.2164 84.9884 47.2164 84.9884L47.4072 88.3328L51.1116 86.72L52.8 93.866C52.8 93.866 52.7568 96.4832 54.1284 97.466C54.1284 97.466 54.4668 103.338 54.1284 107.629C53.79 111.92 46.9284 116.964 44.5632 121.467C42.198 125.971 26.772 139.208 26.772 139.208L13.7112 132.994L23.154 94.856L31.614 83.9804L36.6288 71.4704C36.6288 71.4704 37.4892 79.6424 36.9888 85.1504L46.878 73.04Z" fill="black" fill-opacity="0.7"/>
<path d="M50.514 95.864C50.1864 97.4408 50.9748 106.084 50.838 107.251C50.7012 108.417 43.8252 116.251 43.4796 116.845C43.134 117.439 38.5368 120.085 37.4676 121.348C32.4708 127.177 29.742 132.544 27.5496 137.926C27.1284 138.963 26.7252 140.004 26.3292 141.048L6.5004 129.528C8.1672 127.461 9.7404 125.625 11.1804 123.955C14.0604 120.567 16.3536 117.856 17.4768 115.297C17.8215 114.643 18.2163 114.017 18.6576 113.425C19.104 112.791 19.5036 112.269 19.5036 112.269C19.5036 112.269 18.0636 108.212 18.3984 106.938C18.7332 105.663 17.9844 95.1872 17.9844 95.1872C17.9844 95.1872 17.0088 88.0556 16.0476 86.2556C15.8115 85.7856 15.7047 85.2613 15.738 84.7364C15.7848 83.0912 16.7388 81.0176 17.2068 78.6164C17.8332 75.3764 17.5308 73.7744 19.4964 74.894C21.462 76.0136 20.544 82.814 20.544 82.814L23.514 89.3948C24.2952 87.8036 23.514 83.1596 23.4744 82.0616C23.4744 81.8816 23.4744 81.5828 23.4456 81.194C23.3844 79.3004 23.2584 75.3584 23.4204 73.8032C23.4204 73.7168 23.4204 73.6376 23.4492 73.5656C23.6904 71.96 24.5508 66.8516 25.098 66.2828C25.9116 65.4404 27.204 64.7312 28.4208 66.6428C29.1012 67.7228 28.8096 76.2872 28.8096 76.2872C28.8096 76.2872 31.632 72.8816 32.4888 72.05C33.3456 71.2184 35.9448 69.6992 36.6396 71.4596C37.3344 73.22 34.7712 78.6596 34.7712 78.6596C35.3076 79.9196 35.3724 83.408 35.3724 83.408C35.3724 83.408 36.5856 87.7676 37.3308 87.728H37.3632C37.5792 87.6812 37.8168 86.8892 38.0652 85.7768C38.6772 83.0516 39.3432 78.3896 39.8652 77.9828L40.2252 77.6948C40.2417 77.6741 40.2611 77.6559 40.2828 77.6408L40.416 77.522C41.6904 76.388 44.376 73.868 44.376 73.868C44.376 73.868 44.5668 72.662 46.9176 73.0328C49.2684 73.4036 45.8736 80.3408 45.8736 80.3408C45.402 82.5476 44.6784 88.2248 44.6784 88.2248C44.4588 90.5864 44.5884 96.9332 44.5884 96.9332C44.5884 96.9332 45.7008 93.2396 45.6288 91.8932C45.5568 90.5468 47.8392 87.2492 48.5088 86.3996C49.1784 85.55 52.1664 85.8488 51.3348 87.4796C50.5032 89.1104 50.8416 94.28 50.514 95.864Z" fill="white"/>
<path opacity="0.4" d="M17.466 115.311C17.8107 114.658 18.2055 114.032 18.6468 113.439C18.6468 113.439 17.4768 116.679 17.3616 118.404C17.286 119.541 14.2908 121.51 11.1696 123.969C14.0676 120.582 16.3428 117.871 17.466 115.311Z" fill="#3ECC5F"/>
<path opacity="0.4" d="M18.6468 113.439C19.0932 112.806 19.4928 112.284 19.4928 112.284C19.4928 112.284 18.0528 108.226 18.3876 106.952C18.7224 105.678 17.9736 95.2016 17.9736 95.2016C17.9736 95.2016 16.998 88.07 16.0368 86.27L18.276 90.1832C18.276 90.1832 18.0564 93.2756 18.6936 94.9712C19.3308 96.6668 20.1336 101.84 20.1336 101.84C20.1336 101.84 19.1904 106.189 19.5108 107.755C19.8312 109.321 21.2748 108.752 21.2748 108.752C21.2748 108.752 21.984 111.618 18.6468 113.439Z" fill="#3ECC5F"/>
<path opacity="0.4" d="M23.8704 83.9804C25.4148 93.0236 22.7544 90.5216 21.7932 88.5704C20.832 86.6192 18.5748 82.9256 16.8756 83.714C16.3984 83.938 15.9987 84.2989 15.7272 84.7508C15.774 83.1056 16.728 81.032 17.196 78.6308C17.8224 75.3908 17.52 73.7888 19.4856 74.9084C21.4512 76.028 20.5332 82.8284 20.5332 82.8284L23.5032 89.4092C24.2844 87.818 23.5032 83.174 23.4636 82.076C23.4636 81.896 23.4636 81.5972 23.4348 81.2084C23.5536 82.04 23.6976 82.9652 23.8704 83.9804Z" fill="#3ECC5F"/>
<path opacity="0.4" d="M27.6504 75.0452C27.6504 75.0452 25.9836 72.8636 24.5364 72.9752C24.2879 72.9887 24.0488 73.0746 23.8485 73.2224C23.6483 73.3701 23.4957 73.5733 23.4096 73.8068C23.4096 73.7204 23.4096 73.6412 23.4384 73.5692C23.6796 71.9636 24.54 66.8552 25.0872 66.2864C25.9008 65.444 27.1932 64.7348 28.41 66.6464C29.0904 67.7264 28.7988 76.2908 28.7988 76.2908C28.7988 76.2908 31.6212 72.8852 32.478 72.0536C33.3348 71.222 35.934 69.7028 36.6288 71.4632C37.3236 73.2236 34.7604 78.6632 34.7604 78.6632C35.2968 79.9232 35.3616 83.4116 35.3616 83.4116C35.3616 83.4116 36.5748 87.7712 37.32 87.7316C35.6784 90.8204 34.584 83.9912 34.584 83.9912C34.8288 82.58 33.9576 79.52 34.044 78.7136C34.1304 77.9072 32.532 75.056 29.8392 75.8336C27.1464 76.6112 29.0904 87.2528 29.0904 87.2528C28.5583 88.1005 28.2487 89.0688 28.1904 90.068C27.3588 89.042 28.1904 86.108 28.1904 86.108C27.4524 83.3 27.6504 75.0452 27.6504 75.0452Z" fill="#3ECC5F"/>
<path opacity="0.4" d="M40.2 77.684C39.0516 78.89 39.21 81.9392 38.04 85.766C38.652 83.0408 39.318 78.3788 39.84 77.972L40.2 77.684Z" fill="#3ECC5F"/>
<path opacity="0.4" d="M50.514 95.864C50.1864 97.4408 50.9748 106.084 50.838 107.251C50.7012 108.417 43.8252 116.251 43.4796 116.845C43.134 117.439 38.5368 120.085 37.4676 121.348C32.4708 127.177 29.742 132.544 27.5496 137.926C28.3754 135.137 29.3721 132.4 30.534 129.733C32.8992 124.416 33.864 123.469 35.2824 121.95C36.7008 120.43 36.546 117.201 36.546 117.201C37.5929 116.949 38.666 116.822 39.7428 116.823C41.5428 116.823 46.8708 109.227 48.7032 107.895C50.5356 106.563 50.8632 106.563 48.7032 103.626C46.5432 100.688 47.1552 104.097 46.5072 103.986C45.8592 103.874 45.5064 105.292 45.5064 105.292C45.2796 102.297 43.3464 98.8124 42.9396 97.9412C42.5328 97.07 43.926 91.9616 43.638 90.5396C43.35 89.1176 44.8764 80.4596 44.8764 80.4596C44.8764 80.4596 44.6856 77.1368 41.676 77.126C41.2141 77.1005 40.7579 77.2381 40.3872 77.5148C41.6616 76.3808 44.3472 73.8608 44.3472 73.8608C44.3472 73.8608 44.538 72.6548 46.8888 73.0256C49.2396 73.3964 45.8448 80.3336 45.8448 80.3336C45.3732 82.5404 44.6496 88.2176 44.6496 88.2176C44.43 90.5792 44.5596 96.926 44.5596 96.926C44.5596 96.926 45.672 93.2324 45.6 91.886C45.528 90.5396 47.8104 87.242 48.48 86.3924C49.1496 85.5428 52.1376 85.8416 51.306 87.4724C50.4744 89.1032 50.8416 94.28 50.514 95.864Z" fill="#3ECC5F"/>
<path d="M26.3256 141.08C28.77 134.625 31.5024 128.325 37.4676 121.366C38.5476 120.121 43.1304 117.475 43.4796 116.863C43.8288 116.251 50.7048 108.432 50.838 107.269C50.9712 106.106 50.1864 97.4588 50.514 95.882C50.8416 94.3052 50.46 89.1068 51.288 87.4868C52.116 85.8668 49.128 85.5716 48.462 86.4068C47.796 87.242 45.5208 90.5684 45.582 91.9004C45.6432 93.2324 44.5416 96.9404 44.5416 96.9404C44.5416 96.9404 44.412 90.5936 44.6316 88.232C44.6316 88.232 45.3516 82.5548 45.8268 80.348C45.8268 80.348 49.218 73.4072 46.8708 73.04C44.5236 72.6728 44.3292 73.8752 44.3292 73.8752C44.3292 73.8752 40.5816 77.396 39.84 77.972C39.0984 78.548 38.0868 87.548 37.3416 87.7172C36.5964 87.8864 35.3508 83.3972 35.3508 83.3972C35.3508 83.3972 35.286 79.9088 34.7496 78.6488C34.7496 78.6488 37.3092 73.2236 36.618 71.4488C35.9268 69.674 33.3276 71.2112 32.4672 72.0392C31.6068 72.8672 28.788 76.2764 28.788 76.2764C28.788 76.2764 29.0796 67.7048 28.3992 66.632C27.1824 64.7132 25.8792 65.4224 25.0764 66.272C24.5292 66.8408 23.6688 71.9492 23.4276 73.5548C23.1864 75.1604 23.4276 80.9492 23.4528 82.0508C23.478 83.1524 24.2736 87.7928 23.4924 89.384L20.5224 82.8032C20.5224 82.8032 21.444 75.9956 19.4748 74.8832C17.5056 73.7708 17.8116 75.3764 17.1852 78.6056C16.5588 81.8348 15.0684 84.4592 16.026 86.2628C16.9836 88.0664 17.9628 95.1944 17.9628 95.1944C17.9628 95.1944 18.7044 105.67 18.3768 106.945C18.0492 108.219 19.4928 112.28 19.4928 112.28C19.4928 112.28 17.8296 114.472 17.466 115.308C15.7884 119.12 11.544 123.289 6.4968 129.56" stroke="#263238" stroke-linecap="round" stroke-linejoin="round"/>
<path d="M28.7988 76.298C28.3807 76.9162 28.169 77.6509 28.194 78.3968C28.194 79.7648 29.0904 87.2528 29.0904 87.2528C29.0904 87.2528 28.4388 88.0232 28.4064 88.6928" stroke="#263238" stroke-linecap="round" stroke-linejoin="round"/>
<path d="M44.5488 96.9224C44.6472 98.1871 44.9728 99.4237 45.51 100.573C46.3524 102.236 46.0788 103.154 45.7908 104.137C45.5978 104.999 45.4953 105.878 45.4848 106.761" stroke="#263238" stroke-linecap="round" stroke-linejoin="round"/>
<path d="M23.82 87.9188C23.82 87.9188 24.4464 89.906 23.2836 90.8492" stroke="#263238" stroke-linecap="round" stroke-linejoin="round"/>
<path d="M37.3524 87.7172C37.3524 87.7172 37.4748 88.4984 36.3696 88.5704" stroke="#263238" stroke-linecap="round" stroke-linejoin="round"/>
<path d="M44.7756 78.7172C44.7756 78.7172 42.0036 75.6932 39.8508 77.972" stroke="#263238" stroke-linecap="round" stroke-linejoin="round"/>
<path d="M33.5436 77.018C33.5436 77.018 32.2656 75.4016 31.1568 75.4988C30.048 75.596 28.5504 76.2728 28.3812 77.162" stroke="#263238" stroke-linecap="round" stroke-linejoin="round"/>
<path d="M46.0284 103.165C46.4755 103.804 46.8013 104.521 46.9896 105.278" stroke="#263238" stroke-linecap="round" stroke-linejoin="round"/>
<path d="M38.8284 90.8744C37.968 92.4764 38.3784 95.1944 38.0616 95.9396" stroke="#263238" stroke-linecap="round" stroke-linejoin="round"/>
<path d="M29.7132 88.214C29.9148 89.1356 29.2776 90.6368 29.1804 91.742C29.0832 92.8472 29.9868 94.5536 29.8212 96.1052" stroke="#263238" stroke-linecap="round" stroke-linejoin="round"/>
<path d="M23.8704 91.9868C23.8704 91.9868 23.118 93.722 23.1504 94.8668C23.1828 96.0116 23.5896 98.5208 23.5896 98.5208" stroke="#263238" stroke-linecap="round" stroke-linejoin="round"/>
<path d="M18.3372 91.904C18.3372 91.904 18.0636 93.704 18.6972 94.9712C19.3308 96.2384 19.9464 98.9312 19.9464 98.9312" stroke="#263238" stroke-linecap="round" stroke-linejoin="round"/>
<path d="M19.4928 112.28C19.8246 112.188 20.1212 111.999 20.344 111.736C20.5667 111.473 20.7054 111.15 20.742 110.808" stroke="#263238" stroke-linecap="round" stroke-linejoin="round"/>
<path d="M37.59 117.766C37.59 117.766 38.2776 120.312 36.96 121.95" stroke="#263238" stroke-linecap="round" stroke-linejoin="round"/>
<path d="M15.7452 84.4484C15.7452 84.4484 17.682 82.5584 19.1472 84.1532" stroke="#263238" stroke-linecap="round" stroke-linejoin="round"/>
<path d="M23.4384 73.5692C23.4384 73.5692 24.8784 72.0608 26.5632 73.6736" stroke="#263238" stroke-linecap="round" stroke-linejoin="round"/>
</svg>
