<svg width="250" height="250" viewBox="0 0 250 250" fill="none" xmlns="http://www.w3.org/2000/svg">
<path d="M232.25 55.09C231.457 53.7567 230.623 52.4383 229.75 51.135C218.165 33.965 198.22 22.22 178.6 16.91C169.992 14.6185 161.149 13.3266 152.245 13.06C93.935 11.085 70.71 57.06 51.44 68.9C32.17 80.74 2.5 101 4.5 143.5C6.5 186 37.11 226 96.405 228.5C155.7 231 159.655 204.29 192.76 194.405C214.67 187.865 230.26 165.775 237.86 145.365C248.25 117.54 247.76 81.405 232.25 55.09Z" fill="#3ECC5F"/>
<path opacity="0.7" d="M232.25 55.09C231.457 53.7567 230.623 52.4383 229.75 51.135C218.165 33.965 198.22 22.22 178.6 16.91C169.992 14.6185 161.149 13.3266 152.245 13.06C93.935 11.085 70.71 57.06 51.44 68.9C32.17 80.74 2.5 101 4.5 143.5C6.5 186 37.11 226 96.405 228.5C155.7 231 159.655 204.29 192.76 194.405C214.67 187.865 230.26 165.775 237.86 145.365C248.25 117.54 247.76 81.405 232.25 55.09Z" fill="white"/>
<path d="M243.63 233.325H23.5" stroke="#263238" stroke-linecap="round" stroke-linejoin="round"/>
<g opacity="0.3">
<path d="M119.78 20.235V203H179.15V20.235H119.78ZM176.16 24.295V51.295H151.45V24.295H176.16ZM147.755 24.295V51.295H122.755V24.295H147.755ZM122.755 55.55H147.755V82.315H122.755V55.55ZM176.16 198.94H122.77V86.94H176.16V198.94ZM151.45 82.315V55.55H176.16V82.315H151.45Z" stroke="black" stroke-linecap="round" stroke-linejoin="round"/>
<path d="M178.92 20.235V203H238.285V20.235H178.92ZM235.3 24.295V51.295H210.59V24.295H235.3ZM206.895 24.295V51.295H181.895V24.295H206.895ZM181.895 55.55H206.895V82.315H181.895V55.55ZM235.3 198.94H181.91V86.94H235.3V198.94ZM210.59 82.315V55.55H235.3V82.315H210.59Z" stroke="black" stroke-linecap="round" stroke-linejoin="round"/>
<path d="M162.87 117.295L147.965 135.845" stroke="black" stroke-linecap="round" stroke-linejoin="round"/>
<path d="M166.57 112.69L164.2 115.64" stroke="black" stroke-linecap="round" stroke-linejoin="round"/>
<path d="M131.76 149.37L128.705 152.96" stroke="black" stroke-linecap="round" stroke-linejoin="round"/>
<path d="M151.555 126.115L134.045 146.685" stroke="black" stroke-linecap="round" stroke-linejoin="round"/>
<path d="M222.925 122.96L208.02 141.51" stroke="black" stroke-linecap="round" stroke-linejoin="round"/>
<path d="M226.625 118.355L224.255 121.3" stroke="black" stroke-linecap="round" stroke-linejoin="round"/>
<path d="M191.815 155.035L188.765 158.625" stroke="black" stroke-linecap="round" stroke-linejoin="round"/>
<path d="M211.61 131.775L194.1 152.35" stroke="black" stroke-linecap="round" stroke-linejoin="round"/>
<path d="M229.81 28.535L222.675 37.415" stroke="black" stroke-linecap="round" stroke-linejoin="round"/>
<path d="M231.58 26.33L230.445 27.745" stroke="black" stroke-linecap="round" stroke-linejoin="round"/>
<path d="M214.92 43.89L213.455 45.605" stroke="black" stroke-linecap="round" stroke-linejoin="round"/>
<path d="M224.395 32.755L216.01 42.605" stroke="black" stroke-linecap="round" stroke-linejoin="round"/>
<path d="M201.97 28.535L194.835 37.415" stroke="black" stroke-linecap="round" stroke-linejoin="round"/>
<path d="M203.74 26.33L202.605 27.745" stroke="black" stroke-linecap="round" stroke-linejoin="round"/>
<path d="M187.08 43.89L185.62 45.605" stroke="black" stroke-linecap="round" stroke-linejoin="round"/>
<path d="M196.555 32.755L188.175 42.605" stroke="black" stroke-linecap="round" stroke-linejoin="round"/>
<path d="M201.97 61.8L194.835 70.68" stroke="black" stroke-linecap="round" stroke-linejoin="round"/>
<path d="M203.74 59.595L202.605 61.01" stroke="black" stroke-linecap="round" stroke-linejoin="round"/>
<path d="M187.08 77.155L185.62 78.87" stroke="black" stroke-linecap="round" stroke-linejoin="round"/>
<path d="M196.555 66.02L188.175 75.87" stroke="black" stroke-linecap="round" stroke-linejoin="round"/>
<path d="M226.8 61.8L219.665 70.68" stroke="black" stroke-linecap="round" stroke-linejoin="round"/>
<path d="M228.57 59.595L227.435 61.01" stroke="black" stroke-linecap="round" stroke-linejoin="round"/>
<path d="M211.91 77.155L210.45 78.87" stroke="black" stroke-linecap="round" stroke-linejoin="round"/>
<path d="M221.385 66.02L213.005 75.87" stroke="black" stroke-linecap="round" stroke-linejoin="round"/>
<path d="M171.12 28.535L163.985 37.415" stroke="black" stroke-linecap="round" stroke-linejoin="round"/>
<path d="M172.89 26.33L171.755 27.745" stroke="black" stroke-linecap="round" stroke-linejoin="round"/>
<path d="M156.23 43.89L154.77 45.605" stroke="black" stroke-linecap="round" stroke-linejoin="round"/>
<path d="M165.705 32.755L157.325 42.605" stroke="black" stroke-linecap="round" stroke-linejoin="round"/>
<path d="M171.12 61.025L163.985 69.905" stroke="black" stroke-linecap="round" stroke-linejoin="round"/>
<path d="M172.89 58.825L171.755 60.235" stroke="black" stroke-linecap="round" stroke-linejoin="round"/>
<path d="M156.23 76.38L154.77 78.1" stroke="black" stroke-linecap="round" stroke-linejoin="round"/>
<path d="M165.705 65.25L157.325 75.095" stroke="black" stroke-linecap="round" stroke-linejoin="round"/>
<path d="M144.035 61.025L136.9 69.905" stroke="black" stroke-linecap="round" stroke-linejoin="round"/>
<path d="M145.805 58.825L144.67 60.235" stroke="black" stroke-linecap="round" stroke-linejoin="round"/>
<path d="M129.14 76.38L127.68 78.1" stroke="black" stroke-linecap="round" stroke-linejoin="round"/>
<path d="M138.615 65.25L130.235 75.095" stroke="black" stroke-linecap="round" stroke-linejoin="round"/>
<path d="M142.15 28.535L135.015 37.415" stroke="black" stroke-linecap="round" stroke-linejoin="round"/>
<path d="M143.925 26.33L142.79 27.745" stroke="black" stroke-linecap="round" stroke-linejoin="round"/>
<path d="M127.26 43.89L125.8 45.605" stroke="black" stroke-linecap="round" stroke-linejoin="round"/>
<path d="M136.735 32.755L128.355 42.605" stroke="black" stroke-linecap="round" stroke-linejoin="round"/>
</g>
<path d="M50.825 171.86C50.825 171.86 45.325 168.815 44.93 175.725C44.535 182.635 43.5 227.545 43.5 227.545" stroke="#263238" stroke-miterlimit="10" stroke-linecap="round"/>
<path d="M42.08 176.33C42.08 176.33 46.58 186.29 44.525 226.935" stroke="#263238" stroke-miterlimit="10" stroke-linecap="round"/>
<path d="M46.5 173.25C46.5 173.25 44.4 174.595 43.205 173.06C42.01 171.525 44 168.7 42.23 167.5C40.46 166.3 37.42 168.135 37.42 168.135C37.42 168.135 39.765 168.82 39.69 170.105C39.615 171.39 38.48 171.87 38.33 171.31C38.18 170.75 37.06 167.93 35.155 169.1C34.6053 169.426 34.1274 169.859 33.7501 170.375C33.3728 170.891 33.104 171.478 32.96 172.1C32.96 172.1 37.395 171.625 37.665 173.295C37.935 174.965 35.845 173 34.015 172.895C32.185 172.79 30.515 173.055 30.635 174.165C30.6781 175.143 30.6211 176.123 30.465 177.09C31.4642 176.26 32.7263 175.814 34.025 175.83C36.025 175.95 35.965 177.23 34.135 177.125C32.305 177.02 30.735 178.76 30.735 178.76C30.735 178.76 32.4 181.6 34.5 183C36.6 184.4 37.385 183.905 37.63 182.82C37.875 181.735 37.31 178.945 38.59 179.02C39.87 179.095 36.47 183.85 38.09 184.13C39.71 184.41 41.04 183.94 41.47 182.865L41.9 181.785C41.9 181.785 41.33 179 41.58 177.91C41.83 176.82 42.125 177.945 42.415 179.245C42.705 180.545 42.89 183.68 43.45 183.53C44.01 183.38 45.795 181.1 46.215 180.205C46.635 179.31 43.86 176.58 43.89 176.03C43.92 175.48 46.065 176.53 46.39 177.095C46.6322 177.524 46.8509 177.967 47.045 178.42C47.045 178.42 48.38 177.58 48.35 175.005C48.32 172.43 46.5 173.25 46.5 173.25Z" fill="#3ECC5F"/>
<path opacity="0.3" d="M46.5 173.25C46.5 173.25 44.4 174.595 43.205 173.06C42.01 171.525 44 168.7 42.23 167.5C40.46 166.3 37.42 168.135 37.42 168.135C37.42 168.135 39.765 168.82 39.69 170.105C39.615 171.39 38.48 171.87 38.33 171.31C38.18 170.75 37.06 167.93 35.155 169.1C34.6053 169.426 34.1274 169.859 33.7501 170.375C33.3728 170.891 33.104 171.478 32.96 172.1C32.96 172.1 37.395 171.625 37.665 173.295C37.935 174.965 35.845 173 34.015 172.895C32.185 172.79 30.515 173.055 30.635 174.165C30.6781 175.143 30.6211 176.123 30.465 177.09C31.4642 176.26 32.7263 175.814 34.025 175.83C36.025 175.95 35.965 177.23 34.135 177.125C32.305 177.02 30.735 178.76 30.735 178.76C30.735 178.76 32.4 181.6 34.5 183C36.6 184.4 37.385 183.905 37.63 182.82C37.875 181.735 37.31 178.945 38.59 179.02C39.87 179.095 36.47 183.85 38.09 184.13C39.71 184.41 41.04 183.94 41.47 182.865L41.9 181.785C41.9 181.785 41.33 179 41.58 177.91C41.83 176.82 42.125 177.945 42.415 179.245C42.705 180.545 42.89 183.68 43.45 183.53C44.01 183.38 45.795 181.1 46.215 180.205C46.635 179.31 43.86 176.58 43.89 176.03C43.92 175.48 46.065 176.53 46.39 177.095C46.6322 177.524 46.8509 177.967 47.045 178.42C47.045 178.42 48.38 177.58 48.35 175.005C48.32 172.43 46.5 173.25 46.5 173.25Z" fill="#263238"/>
<path d="M35.84 179.285C37.205 177.59 39.225 175.285 40.915 174.21" stroke="#263238" stroke-miterlimit="10" stroke-linecap="round"/>
<path d="M34.25 181.345C34.25 181.345 34.605 180.845 35.17 180.12" stroke="#263238" stroke-miterlimit="10" stroke-linecap="round"/>
<path d="M41.805 174.63C41.805 174.63 43.84 177.505 44.215 180.46" stroke="#263238" stroke-miterlimit="10" stroke-linecap="round"/>
<path d="M39.5 176.33C39.5 176.33 40.07 175.995 39.855 179.655" stroke="#263238" stroke-miterlimit="10" stroke-linecap="round"/>
<path d="M41 172.93C41 172.93 42.16 171.895 41.55 169.84" stroke="#263238" stroke-miterlimit="10" stroke-linecap="round"/>
<path d="M39.42 174.67L38.59 173.155" stroke="#263238" stroke-miterlimit="10" stroke-linecap="round"/>
<path d="M37.675 176.22C37.675 176.22 35.04 174.22 33.39 174.13" stroke="#263238" stroke-miterlimit="10" stroke-linecap="round"/>
<path d="M53.96 167.83C53.96 167.83 53.875 170.83 51.52 170.995C49.165 171.16 47.705 167.215 45.295 168.16C42.885 169.105 42.655 173.41 42.655 173.41C42.655 173.41 44.94 171.53 46.155 172.48C47.37 173.43 47.105 174.89 46.44 174.655C45.775 174.42 42.19 173.625 42.065 176.33C42.015 177.101 42.1221 177.875 42.38 178.604C42.6378 179.333 43.041 180.002 43.565 180.57C43.565 180.57 46.115 175.81 47.965 176.675C49.815 177.54 46.435 178.3 45.08 180.055C43.725 181.81 42.86 183.67 44.05 184.305C45.0651 184.937 46.0119 185.672 46.875 186.5C46.7256 184.933 47.1405 183.364 48.045 182.075C49.545 180.14 50.765 181.075 49.41 182.845C48.055 184.615 48.73 187.345 48.73 187.345C48.73 187.345 52.73 187.62 55.58 186.46C58.43 185.3 58.45 184.19 57.53 183.2C56.61 182.21 53.43 180.88 54.38 179.65C55.33 178.42 57.775 185.065 59.17 183.62C60.565 182.175 60.985 180.535 60.2 179.37L59.415 178.205C59.415 178.205 56.24 176.88 55.32 175.89C54.4 174.9 55.725 175.36 57.225 175.96C58.725 176.56 61.99 178.505 62.225 177.845C62.46 177.185 61.39 173.845 60.78 172.81C60.17 171.775 55.545 172.695 55.015 172.31C54.485 171.925 57.015 170.47 57.79 170.525C58.3855 170.576 58.9779 170.658 59.565 170.77C59.565 170.77 59.635 168.86 57.035 167.14C54.435 165.42 53.96 167.83 53.96 167.83Z" fill="#3ECC5F"/>
<path opacity="0.2" d="M53.96 167.83C53.96 167.83 53.875 170.83 51.52 170.995C49.165 171.16 47.705 167.215 45.295 168.16C42.885 169.105 42.655 173.41 42.655 173.41C42.655 173.41 44.94 171.53 46.155 172.48C47.37 173.43 47.105 174.89 46.44 174.655C45.775 174.42 42.19 173.625 42.065 176.33C42.015 177.101 42.1221 177.875 42.38 178.604C42.6378 179.333 43.041 180.002 43.565 180.57C43.565 180.57 46.115 175.81 47.965 176.675C49.815 177.54 46.435 178.3 45.08 180.055C43.725 181.81 42.86 183.67 44.05 184.305C45.0651 184.937 46.0119 185.672 46.875 186.5C46.7256 184.933 47.1405 183.364 48.045 182.075C49.545 180.14 50.765 181.075 49.41 182.845C48.055 184.615 48.73 187.345 48.73 187.345C48.73 187.345 52.73 187.62 55.58 186.46C58.43 185.3 58.45 184.19 57.53 183.2C56.61 182.21 53.43 180.88 54.38 179.65C55.33 178.42 57.775 185.065 59.17 183.62C60.565 182.175 60.985 180.535 60.2 179.37L59.415 178.205C59.415 178.205 56.24 176.88 55.32 175.89C54.4 174.9 55.725 175.36 57.225 175.96C58.725 176.56 61.99 178.505 62.225 177.845C62.46 177.185 61.39 173.845 60.78 172.81C60.17 171.775 55.545 172.695 55.015 172.31C54.485 171.925 57.015 170.47 57.79 170.525C58.3855 170.576 58.9779 170.658 59.565 170.77C59.565 170.77 59.635 168.86 57.035 167.14C54.435 165.42 53.96 167.83 53.96 167.83Z" fill="#263238"/>
<path d="M52.745 182.595C51.985 180.07 51.065 176.49 51.125 174.055" stroke="#263238" stroke-miterlimit="10" stroke-linecap="round"/>
<path d="M53.725 185.585C53.725 185.585 53.475 184.9 53.13 183.83" stroke="#263238" stroke-miterlimit="10" stroke-linecap="round"/>
<path d="M52.155 173.445C52.155 173.445 56.415 173.37 59.655 175.01" stroke="#263238" stroke-miterlimit="10" stroke-linecap="round"/>
<path d="M52.285 176.91C52.285 176.91 52.34 176.11 55.855 178.82" stroke="#263238" stroke-miterlimit="10" stroke-linecap="round"/>
<path d="M49.895 173.105C49.895 173.105 49.65 171.235 47.175 170.45" stroke="#263238" stroke-miterlimit="10" stroke-linecap="round"/>
<path d="M50.57 175.865L48.485 175.66" stroke="#263238" stroke-miterlimit="10" stroke-linecap="round"/>
<path d="M50.93 178.67C50.93 178.67 47.14 179.95 45.93 181.53" stroke="#263238" stroke-miterlimit="10" stroke-linecap="round"/>
<path d="M28.675 187.915C28.675 187.915 40.675 195.84 40.46 226.525" stroke="#263238" stroke-miterlimit="10" stroke-linecap="round"/>
<path d="M43.455 185.82C43.455 185.82 43.075 189.295 40.345 189.245C37.615 189.195 36.3 184.5 33.43 185.385C30.56 186.27 29.885 191.19 29.885 191.19C29.885 191.19 32.7 189.24 34.035 190.45C35.37 191.66 34.895 193.32 34.155 192.99C33.415 192.66 29.345 191.4 28.95 194.49C28.8194 195.375 28.8694 196.278 29.0972 197.143C29.3249 198.008 29.7256 198.819 30.275 199.525C30.275 199.525 33.67 194.27 35.725 195.445C37.78 196.62 33.805 197.175 32.075 199.075C30.345 200.975 29.17 203.05 30.5 203.9C31.6043 204.716 32.6229 205.643 33.54 206.665C33.54 206.665 33.4 203.76 35.305 201.665C37.21 199.57 38.54 200.785 36.805 202.665C35.07 204.545 35.59 207.82 35.59 207.82C35.59 207.82 40.17 208.51 43.59 207.44C47.01 206.37 47.09 205.09 46.15 203.865C45.21 202.64 41.65 200.8 42.85 199.47C44.05 198.14 46.25 206.04 48 204.505C49.75 202.97 50.385 201.115 49.59 199.7L48.795 198.28C48.795 198.28 45.255 196.445 44.295 195.22C43.335 193.995 44.795 194.65 46.49 195.48C48.185 196.31 51.745 198.87 52.075 198.125C52.405 197.38 51.485 193.425 50.885 192.18C50.285 190.935 44.85 191.555 44.28 191.035C43.71 190.515 46.735 189.1 47.65 189.24C48.3322 189.355 49.0081 189.505 49.675 189.69C49.675 189.69 49.935 187.495 47.1 185.265C44.265 183.035 43.455 185.82 43.455 185.82Z" fill="#3ECC5F"/>
<path opacity="0.3" d="M43.455 185.82C43.455 185.82 43.075 189.295 40.345 189.245C37.615 189.195 36.3 184.5 33.43 185.385C30.56 186.27 29.885 191.19 29.885 191.19C29.885 191.19 32.7 189.24 34.035 190.45C35.37 191.66 34.895 193.32 34.155 192.99C33.415 192.66 29.345 191.4 28.95 194.49C28.8194 195.375 28.8694 196.278 29.0972 197.143C29.3249 198.008 29.7256 198.819 30.275 199.525C30.275 199.525 33.67 194.27 35.725 195.445C37.78 196.62 33.805 197.175 32.075 199.075C30.345 200.975 29.17 203.05 30.5 203.9C31.6043 204.716 32.6229 205.643 33.54 206.665C33.54 206.665 33.4 203.76 35.305 201.665C37.21 199.57 38.54 200.785 36.805 202.665C35.07 204.545 35.59 207.82 35.59 207.82C35.59 207.82 40.17 208.51 43.59 207.44C47.01 206.37 47.09 205.09 46.15 203.865C45.21 202.64 41.65 200.8 42.85 199.47C44.05 198.14 46.25 206.04 48 204.505C49.75 202.97 50.385 201.115 49.59 199.7L48.795 198.28C48.795 198.28 45.255 196.445 44.295 195.22C43.335 193.995 44.795 194.65 46.49 195.48C48.185 196.31 51.745 198.87 52.075 198.125C52.405 197.38 51.485 193.425 50.885 192.18C50.285 190.935 44.85 191.555 44.28 191.035C43.71 190.515 46.735 189.1 47.65 189.24C48.3322 189.355 49.0081 189.505 49.675 189.69C49.675 189.69 49.935 187.495 47.1 185.265C44.265 183.035 43.455 185.82 43.455 185.82Z" fill="#263238"/>
<path d="M40.66 202.745C40.02 199.745 39.3 195.54 39.6 192.745" stroke="#263238" stroke-miterlimit="10" stroke-linecap="round"/>
<path d="M41.5 206.29C41.5 206.29 41.28 205.475 41 204.21" stroke="#263238" stroke-miterlimit="10" stroke-linecap="round"/>
<path d="M40.845 192.13C40.845 192.13 45.77 192.445 49.345 194.63" stroke="#263238" stroke-miterlimit="10" stroke-linecap="round"/>
<path d="M40.67 196.14C40.67 196.14 40.805 195.225 44.61 198.685" stroke="#263238" stroke-miterlimit="10" stroke-linecap="round"/>
<path d="M38.27 191.525C38.27 191.525 38.165 189.345 35.38 188.205" stroke="#263238" stroke-miterlimit="10" stroke-linecap="round"/>
<path d="M38.785 194.775L36.4 194.34" stroke="#263238" stroke-miterlimit="10" stroke-linecap="round"/>
<path d="M38.94 198.04C38.94 198.04 34.44 199.165 32.885 200.875" stroke="#263238" stroke-miterlimit="10" stroke-linecap="round"/>
<path d="M33.35 212.1C33.35 212.1 41.07 218 41.885 226.73L40.255 197.465" stroke="#263238" stroke-miterlimit="10" stroke-linecap="round"/>
<path d="M52.045 207.83C41.885 206 41.885 226.73 41.885 226.73" stroke="#263238" stroke-miterlimit="10" stroke-linecap="round"/>
<path d="M43.1 226.525C43.1 226.525 37.21 183.65 54.28 183.65" stroke="#263238" stroke-miterlimit="10" stroke-linecap="round"/>
<path d="M48.17 206.6C46.785 205.035 43.835 205.035 42.1 209.03C40.365 213.025 41.925 212.325 41.925 212.325C41.925 212.325 45.225 211.285 47.305 210.59C49.385 209.895 52.16 208.16 52.335 209.2C52.51 210.24 50.95 211.285 49.04 211.63C47.13 211.975 42.1 213.365 42.62 214.405C43.14 215.445 44.355 218.57 44.355 218.57C45.8393 217.312 47.4043 216.153 49.04 215.1C51.295 213.71 52.685 214.23 51.47 215.795C50.255 217.36 46.785 219.09 47.47 221.17C48.155 223.25 52.325 225.855 52.325 225.855C52.325 225.855 52.825 221.52 54.06 220.13C55.295 218.74 55.275 220.305 54.93 222.735C54.7549 223.768 54.6381 224.809 54.58 225.855L59.44 227.59C60.2344 226.381 61.1028 225.222 62.04 224.12L62.91 223.255C62.91 223.255 59.09 219.96 58.91 217.875C58.73 215.79 61.51 217.875 62.38 218.225C63.25 218.575 64.635 221 64.635 221C64.635 221 65.5 217 65.675 215.62L65.85 214.23C65.85 214.23 62.205 212.845 60.815 212.845C59.425 212.845 58.735 213.885 58.735 212.495C58.735 211.105 60.125 210.24 61.685 210.415C63.0984 210.652 64.491 211 65.85 211.455C65.85 211.455 66.89 210.59 66.54 207.985C66.19 205.38 65.33 205.385 63.245 206.08C61.16 206.775 59.775 208.335 58.215 208.335C56.655 208.335 57.52 206.425 58.56 205.905C59.6 205.385 62.205 204.345 62.725 204.17C63.245 203.995 59.95 201.565 58.225 201.22C56.5 200.875 54.225 202.095 54.41 203.825C54.765 207.465 49.56 208.16 48.17 206.6Z" fill="#3ECC5F"/>
<path d="M59.34 224.46C59.39 224.985 59.43 225.51 59.45 226.03" stroke="#263238" stroke-miterlimit="10" stroke-linecap="round"/>
<path d="M55.855 212C57.3784 215.438 58.4749 219.05 59.12 222.755" stroke="#263238" stroke-miterlimit="10" stroke-linecap="round"/>
<path d="M55.23 210.615C54.37 208.765 53.73 207.615 53.73 207.615C54.6757 207.167 55.4623 206.442 55.985 205.535C56.3902 204.713 56.9849 203.998 57.72 203.45" stroke="#263238" stroke-miterlimit="10" stroke-linecap="round"/>
<path d="M47.65 213.54C47.65 213.54 53.895 210.935 53.895 211.455" stroke="#263238" stroke-miterlimit="10" stroke-linecap="round"/>
<path d="M57.365 210.24C57.365 210.24 60.145 208.855 62.57 208.855" stroke="#263238" stroke-miterlimit="10" stroke-linecap="round"/>
<path d="M56.325 214.405C55.123 215.394 54.0195 216.498 53.03 217.7C52.0157 218.898 51.1957 220.248 50.6 221.7" stroke="#263238" stroke-miterlimit="10" stroke-linecap="round"/>
<path d="M58.235 215.1C58.235 215.1 61.88 214.06 63.785 215.795" stroke="#263238" stroke-miterlimit="10" stroke-linecap="round"/>
<path d="M64.835 191.655C62.945 190.54 60.835 190.515 59.835 189.335C58.835 188.155 60.835 187.56 61.895 188.005C62.955 188.45 65.46 189.735 65.935 190.005C66.41 190.275 66.08 186.2 65.205 184.665C64.33 183.13 61.935 182.23 60.735 183.485C58.235 186.14 54.275 182.66 54.545 180.59C54.815 178.52 52.88 176.29 48.73 177.59C44.58 178.89 46.13 179.62 46.13 179.62C46.13 179.62 49.075 181.43 50.965 182.545C52.855 183.66 55.965 184.62 55.31 185.435C54.655 186.25 52.81 185.75 51.31 184.54C49.81 183.33 45.455 180.45 45 181.525C44.545 182.6 43 185.565 43 185.565C44.9225 185.86 46.8234 186.283 48.69 186.83C51.19 187.62 51.735 189.01 49.76 189.12C47.785 189.23 44.2 187.74 43.08 189.62C41.96 191.5 42.73 196.36 42.73 196.36C42.73 196.36 46.345 193.91 48.19 193.915C50.035 193.92 48.855 194.945 46.795 196.275C45.8995 196.824 45.0349 197.421 44.205 198.065L46.08 202.87C47.5152 202.674 48.9615 202.571 50.41 202.56L51.63 202.645C51.63 202.645 51.63 197.6 53.075 196.105C54.52 194.61 54.785 198.07 55.075 198.955C55.365 199.84 54.455 202.455 54.455 202.455C54.455 202.455 58.04 200.495 59.2 199.715L60.365 198.94C60.365 198.94 59.02 195.275 58.11 194.23C57.2 193.185 55.96 193.34 57.01 192.43C58.06 191.52 59.625 192 60.51 193.29C61.2761 194.521 61.9416 195.812 62.5 197.15C62.5 197.15 63.835 197.365 65.575 195.4C67.315 193.435 66.725 192.775 64.835 191.655ZM48.415 197.21C47.025 196.515 50.325 195.13 50.325 195.13C51.54 194.955 49.805 197.905 48.415 197.21ZM50.75 190.735C50.16 190.44 51.935 189.845 51.935 189.845C54.5 190.34 51.345 191.03 50.75 190.735Z" fill="#3ECC5F"/>
<path d="M48.38 200.745C48.02 201.125 47.645 201.495 47.265 201.855" stroke="#263238" stroke-miterlimit="10" stroke-linecap="round"/>
<path d="M55.5 189.95C53.8968 193.351 51.8817 196.541 49.5 199.45" stroke="#263238" stroke-miterlimit="10" stroke-linecap="round"/>
<path d="M56.14 188.565C57 186.7 57.4 185.5 57.4 185.5C58.3581 185.922 59.4225 186.041 60.45 185.84C61.3363 185.608 62.265 185.589 63.16 185.785" stroke="#263238" stroke-miterlimit="10" stroke-linecap="round"/>
<path d="M48.965 184.755C48.965 184.755 55.025 187.755 54.63 188.11" stroke="#263238" stroke-miterlimit="10" stroke-linecap="round"/>
<path d="M57.825 189.935C57.825 189.935 60.69 191.12 62.285 192.935" stroke="#263238" stroke-miterlimit="10" stroke-linecap="round"/>
<path d="M54 191.875C52.4641 191.617 50.9068 191.508 49.35 191.55C47.7837 191.568 46.2299 191.831 44.745 192.33" stroke="#263238" stroke-miterlimit="10" stroke-linecap="round"/>
<path d="M54.725 193.77C54.725 193.77 57.9 195.84 57.84 198.42" stroke="#263238" stroke-miterlimit="10" stroke-linecap="round"/>
<path d="M37.875 215.695C36.375 214.8 34.675 214.78 33.875 213.83C33.075 212.88 34.67 212.4 35.535 212.76C36.4 213.12 38.405 214.15 38.785 214.375C39.165 214.6 38.9 211.315 38.2 210.075C37.5 208.835 35.565 208.12 34.605 209.13C32.57 211.265 29.405 208.465 29.605 206.8C29.805 205.135 28.265 203.34 24.925 204.39C21.585 205.44 22.83 206.025 22.83 206.025C22.83 206.025 25.205 207.48 26.725 208.375C28.245 209.27 30.76 210.05 30.225 210.705C29.69 211.36 28.225 210.955 27.01 209.98C25.795 209.005 22.295 206.68 21.935 207.545C21.575 208.41 20.32 210.795 20.32 210.795C21.8668 211.028 23.3967 211.362 24.9 211.795C26.935 212.435 27.35 213.555 25.76 213.64C24.17 213.725 21.26 212.53 20.39 214.05C19.52 215.57 20.09 219.5 20.09 219.5C20.09 219.5 23 217.5 24.5 217.525C26 217.55 25.035 218.355 23.375 219.425C22.6554 219.864 21.961 220.343 21.295 220.86L22.795 224.725C23.9554 224.57 25.1244 224.488 26.295 224.48L27.295 224.55C27.295 224.55 27.295 220.49 28.46 219.285C29.625 218.08 29.83 220.865 30.075 221.575C30.32 222.285 29.575 224.41 29.575 224.41C29.575 224.41 32.46 222.835 33.395 222.205L34.33 221.58C34.33 221.58 33.25 218.635 32.515 217.79C31.78 216.945 30.785 217.075 31.63 216.34C32.475 215.605 33.73 215.995 34.45 217.035C35.0479 218.019 35.5662 219.049 36 220.115C36 220.115 37.075 220.29 38.5 218.705C39.925 217.12 39.395 216.595 37.875 215.695ZM24.66 220.165C23.545 219.61 26.2 218.5 26.2 218.5C27.175 218.35 25.78 220.725 24.66 220.165ZM26.545 214.955C26.045 214.715 27.495 214.24 27.495 214.24C29.56 214.635 27 215.19 26.545 214.955Z" fill="#3ECC5F"/>
<path d="M24.63 223C24.34 223.305 24.045 223.605 23.735 223.895" stroke="#263238" stroke-miterlimit="10" stroke-linecap="round"/>
<path d="M30.36 214.32C29.0801 217.069 27.4644 219.649 25.55 222" stroke="#263238" stroke-miterlimit="10" stroke-linecap="round"/>
<path d="M30.88 213.205C31.55 211.705 31.88 210.705 31.88 210.705C32.6512 211.045 33.5078 211.141 34.335 210.98C35.0496 210.793 35.7983 210.778 36.52 210.935" stroke="#263238" stroke-miterlimit="10" stroke-linecap="round"/>
<path d="M25.105 210.145C25.105 210.145 29.98 212.565 29.665 212.84" stroke="#263238" stroke-miterlimit="10" stroke-linecap="round"/>
<path d="M32.235 214.31C32.235 214.31 34.54 215.265 35.82 216.74" stroke="#263238" stroke-miterlimit="10" stroke-linecap="round"/>
<path d="M29.155 215.875C27.9183 215.665 26.664 215.576 25.41 215.61C24.1496 215.625 22.8994 215.837 21.705 216.24" stroke="#263238" stroke-miterlimit="10" stroke-linecap="round"/>
<path d="M29.74 217.4C29.74 217.4 32.295 219.065 32.24 221.14" stroke="#263238" stroke-miterlimit="10" stroke-linecap="round"/>
<path d="M31.675 187.05C31.675 187.05 29.77 188.435 28.555 187.05C27.34 185.665 29.055 182.885 27.34 181.845C25.625 180.805 22.84 182.71 22.84 182.71C22.84 182.71 25.095 183.21 25.095 184.445C25.095 185.68 24.055 186.18 23.88 185.66C23.705 185.14 22.49 182.535 20.755 183.75C20.2542 184.087 19.827 184.522 19.4996 185.029C19.1721 185.536 18.9511 186.105 18.85 186.7C18.85 186.7 23.01 186.005 23.35 187.57C23.69 189.135 21.615 187.395 19.88 187.395C18.145 187.395 16.585 187.74 16.755 188.785C16.85 189.708 16.85 190.637 16.755 191.56C17.6538 190.718 18.8243 190.225 20.055 190.17C21.96 190.17 21.96 191.385 20.225 191.385C18.49 191.385 17.105 193.12 17.105 193.12C17.105 193.12 18.84 195.72 20.92 196.935C23 198.15 23.695 197.63 23.87 196.59C24.045 195.55 23.37 192.945 24.565 192.945C25.76 192.945 22.83 197.63 24.39 197.805C25.95 197.98 27.165 197.46 27.515 196.415L27.86 195.375C27.86 195.375 27.165 192.775 27.36 191.73C27.555 190.685 27.86 191.73 28.225 192.945C28.59 194.16 28.92 197.11 29.44 196.945C29.96 196.78 31.5 194.5 31.85 193.64C32.2 192.78 29.42 190.345 29.42 189.825C29.42 189.305 31.505 190.17 31.85 190.69C32.195 191.21 32.545 191.905 32.545 191.905C32.545 191.905 33.76 191.04 33.585 188.61C33.41 186.18 31.675 187.05 31.675 187.05Z" fill="#3ECC5F"/>
<path d="M21.96 193.34C23.155 191.665 24.935 189.39 26.46 188.26" stroke="#263238" stroke-miterlimit="10" stroke-linecap="round"/>
<path d="M20.575 195.375C20.575 195.375 20.88 194.875 21.375 194.17" stroke="#263238" stroke-miterlimit="10" stroke-linecap="round"/>
<path d="M27.34 188.61C27.34 188.61 29.42 191.21 29.94 193.99" stroke="#263238" stroke-miterlimit="10" stroke-linecap="round"/>
<path d="M25.26 190.345C25.26 190.345 25.76 189.995 25.76 193.465" stroke="#263238" stroke-miterlimit="10" stroke-linecap="round"/>
<path d="M26.47 187.05C26.47 187.05 27.515 186.005 26.82 184.1" stroke="#263238" stroke-miterlimit="10" stroke-linecap="round"/>
<path d="M25.085 188.785L24.215 187.395" stroke="#263238" stroke-miterlimit="10" stroke-linecap="round"/>
<path d="M23.525 190.345C23.525 190.345 20.92 188.61 19.36 188.61" stroke="#263238" stroke-miterlimit="10" stroke-linecap="round"/>
<path d="M49.195 225.92H35.785V233H49.195V225.92Z" fill="#263238" stroke="#263238" stroke-width="2" stroke-miterlimit="10" stroke-linecap="round"/>
<path opacity="0.2" d="M160.12 14.7H33.51C30.6105 14.7 28.26 17.0505 28.26 19.95V173.395C28.26 176.295 30.6105 178.645 33.51 178.645H160.12C163.019 178.645 165.37 176.295 165.37 173.395V19.95C165.37 17.0505 163.019 14.7 160.12 14.7Z" fill="black"/>
<path d="M156.12 11.7H29.51C26.6105 11.7 24.26 14.0505 24.26 16.95V170.395C24.26 173.295 26.6105 175.645 29.51 175.645H156.12C159.019 175.645 161.37 173.295 161.37 170.395V16.95C161.37 14.0505 159.019 11.7 156.12 11.7Z" fill="#E3E3E3" stroke="#263238" stroke-linecap="round" stroke-linejoin="round"/>
<path d="M141.34 11.7H39.145V175.645H141.34V11.7Z" fill="white" stroke="#263238" stroke-linecap="round" stroke-linejoin="round"/>
<path d="M156.82 12.085V175.965C158.073 175.826 159.23 175.23 160.07 174.291C160.911 173.351 161.375 172.135 161.375 170.875V17.175C161.374 15.915 160.909 14.6995 160.069 13.7606C159.229 12.8217 158.072 12.2252 156.82 12.085Z" fill="#B2B2B2" stroke="#263238" stroke-linecap="round" stroke-linejoin="round"/>
<path d="M161.375 75.645H156.82V101.345H161.375V75.645Z" fill="#808080" stroke="#263238" stroke-linecap="round" stroke-linejoin="round"/>
<path d="M161.375 33.225V17.175C161.375 16.5022 161.242 15.836 160.985 15.2145C160.727 14.593 160.35 14.0284 159.874 13.5529C159.398 13.0774 158.833 12.7003 158.211 12.4433C157.589 12.1863 156.923 12.0544 156.25 12.055H29.385C28.7122 12.0544 28.0459 12.1863 27.4241 12.4433C26.8024 12.7003 26.2373 13.0774 25.7614 13.5529C25.2854 14.0284 24.9078 14.593 24.6502 15.2145C24.3926 15.836 24.26 16.5022 24.26 17.175V33.225H161.375Z" fill="#B2B2B2" stroke="#263238" stroke-linecap="round" stroke-linejoin="round"/>
<path d="M90.12 20.35H31.785V24.23H90.12V20.35Z" fill="white" stroke="#263238" stroke-linecap="round" stroke-linejoin="round"/>
<path d="M161.37 26.315H24.26V33.225H161.37V26.315Z" fill="#263238" stroke="#263238" stroke-linecap="round" stroke-linejoin="round"/>
<path d="M27.44 28.11H31.005" stroke="white" stroke-linecap="round" stroke-linejoin="round"/>
<path d="M27.44 29.66H31.005" stroke="white" stroke-linecap="round" stroke-linejoin="round"/>
<path d="M27.44 31.21H31.005" stroke="white" stroke-linecap="round" stroke-linejoin="round"/>
<path d="M45.885 28.045V32.075" stroke="white" stroke-linecap="round" stroke-linejoin="round"/>
<path d="M66.9 28.045V32.075" stroke="white" stroke-linecap="round" stroke-linejoin="round"/>
<path d="M87.915 28.045V32.075" stroke="white" stroke-linecap="round" stroke-linejoin="round"/>
<path d="M108.925 28.045V32.075" stroke="white" stroke-linecap="round" stroke-linejoin="round"/>
<path d="M129.94 28.045V32.075" stroke="white" stroke-linecap="round" stroke-linejoin="round"/>
<path d="M161.375 18.025V17.175C161.375 16.5022 161.242 15.836 160.985 15.2145C160.727 14.593 160.35 14.0284 159.874 13.5529C159.398 13.0774 158.833 12.7003 158.211 12.4433C157.589 12.1863 156.923 12.0544 156.25 12.055H29.385C28.7122 12.0544 28.0459 12.1863 27.4241 12.4433C26.8024 12.7003 26.2373 13.0774 25.7614 13.5529C25.2854 14.0284 24.9078 14.593 24.6502 15.2145C24.3926 15.836 24.26 16.5022 24.26 17.175V18.025H161.375Z" fill="#263238" stroke="#263238" stroke-linecap="round" stroke-linejoin="round"/>
<path d="M141.765 16.585C142.61 16.585 143.295 15.9 143.295 15.055C143.295 14.21 142.61 13.525 141.765 13.525C140.92 13.525 140.235 14.21 140.235 15.055C140.235 15.9 140.92 16.585 141.765 16.585Z" fill="white" stroke="#263238" stroke-linecap="round" stroke-linejoin="round"/>
<path d="M146.59 16.585C147.435 16.585 148.12 15.9 148.12 15.055C148.12 14.21 147.435 13.525 146.59 13.525C145.745 13.525 145.06 14.21 145.06 15.055C145.06 15.9 145.745 16.585 146.59 16.585Z" fill="white" stroke="#263238" stroke-linecap="round" stroke-linejoin="round"/>
<path d="M152.945 15.055C152.945 14.7524 152.855 14.4566 152.687 14.205C152.519 13.9534 152.28 13.7573 152 13.6415C151.721 13.5257 151.413 13.4954 151.117 13.5544C150.82 13.6135 150.547 13.7592 150.333 13.9732C150.119 14.1871 149.973 14.4597 149.914 14.7565C149.855 15.0533 149.886 15.361 150.001 15.6405C150.117 15.9201 150.313 16.1591 150.565 16.3272C150.817 16.4953 151.112 16.585 151.415 16.585C151.821 16.585 152.21 16.4238 152.497 16.1369C152.784 15.85 152.945 15.4608 152.945 15.055Z" fill="white" stroke="#263238" stroke-linecap="round" stroke-linejoin="round"/>
<path d="M24.26 166.08V170.875C24.26 172.234 24.8 173.538 25.7611 174.499C26.7222 175.46 28.0258 176 29.385 176H156.25C157.609 176 158.913 175.46 159.874 174.499C160.835 173.538 161.375 172.234 161.375 170.875V166.08H24.26Z" fill="#B2B2B2" stroke="#263238" stroke-linecap="round" stroke-linejoin="round"/>
<path d="M125.05 56.54H49.055V99.14H125.05V56.54Z" fill="#3ECC5F" stroke="#263238" stroke-linecap="round" stroke-linejoin="round"/>
<path d="M125.045 80.435L108.065 69.495L90.79 86.765L78.7 72.66L49.855 98.66L49.055 99.145H125.045V80.435Z" fill="white" stroke="#263238" stroke-linecap="round" stroke-linejoin="round"/>
<path d="M60.855 72.375C64.1936 72.375 66.9 69.6686 66.9 66.33C66.9 62.9914 64.1936 60.285 60.855 60.285C57.5164 60.285 54.81 62.9914 54.81 66.33C54.81 69.6686 57.5164 72.375 60.855 72.375Z" fill="white" stroke="#263238" stroke-linecap="round" stroke-linejoin="round"/>
<path d="M49.34 102.02H124.76" stroke="#263238" stroke-miterlimit="10"/>
<path d="M49.34 105.475H94.535" stroke="#263238" stroke-miterlimit="10"/>
<path d="M115.355 111.94H125.045" stroke="#263238" stroke-miterlimit="10"/>
<path d="M103.825 111.94H114.235" stroke="#263238" stroke-miterlimit="10"/>
<path d="M99.68 111.94H102.705" stroke="#263238" stroke-miterlimit="10"/>
<path d="M85.46 111.94H98.895" stroke="#263238" stroke-miterlimit="10"/>
<path d="M67.99 111.94H84.005" stroke="#263238" stroke-miterlimit="10"/>
<path d="M55.225 111.94H66.31" stroke="#263238" stroke-miterlimit="10"/>
<path d="M49.16 111.94H53.77" stroke="#263238" stroke-miterlimit="10"/>
<path d="M58.85 115.945H49.16" stroke="#263238" stroke-miterlimit="10"/>
<path d="M70.385 115.945H59.97" stroke="#263238" stroke-miterlimit="10"/>
<path d="M74.53 115.945H71.505" stroke="#263238" stroke-miterlimit="10"/>
<path d="M88.75 115.945H75.31" stroke="#263238" stroke-miterlimit="10"/>
<path d="M106.215 115.945H90.205" stroke="#263238" stroke-miterlimit="10"/>
<path d="M118.98 115.945H107.895" stroke="#263238" stroke-miterlimit="10"/>
<path d="M125.045 115.945H120.435" stroke="#263238" stroke-miterlimit="10"/>
<path d="M115.355 119.775H125.045" stroke="#263238" stroke-miterlimit="10"/>
<path d="M103.825 119.775H114.235" stroke="#263238" stroke-miterlimit="10"/>
<path d="M99.68 119.775H102.705" stroke="#263238" stroke-miterlimit="10"/>
<path d="M85.46 119.775H98.895" stroke="#263238" stroke-miterlimit="10"/>
<path d="M67.99 119.775H84.005" stroke="#263238" stroke-miterlimit="10"/>
<path d="M55.225 119.775H66.31" stroke="#263238" stroke-miterlimit="10"/>
<path d="M49.16 119.775H53.77" stroke="#263238" stroke-miterlimit="10"/>
<path d="M58.85 123.78H49.16" stroke="#263238" stroke-miterlimit="10"/>
<path d="M70.385 123.78H59.97" stroke="#263238" stroke-miterlimit="10"/>
<path d="M74.53 123.78H71.505" stroke="#263238" stroke-miterlimit="10"/>
<path d="M88.75 123.78H75.31" stroke="#263238" stroke-miterlimit="10"/>
<path d="M106.215 123.78H90.205" stroke="#263238" stroke-miterlimit="10"/>
<path d="M118.98 123.78H107.895" stroke="#263238" stroke-miterlimit="10"/>
<path d="M125.045 123.78H120.435" stroke="#263238" stroke-miterlimit="10"/>
<path d="M115.355 127.61H125.045" stroke="#263238" stroke-miterlimit="10"/>
<path d="M103.825 127.61H114.235" stroke="#263238" stroke-miterlimit="10"/>
<path d="M99.68 127.61H102.705" stroke="#263238" stroke-miterlimit="10"/>
<path d="M85.46 127.61H98.895" stroke="#263238" stroke-miterlimit="10"/>
<path d="M67.99 127.61H84.005" stroke="#263238" stroke-miterlimit="10"/>
<path d="M55.225 127.61H66.31" stroke="#263238" stroke-miterlimit="10"/>
<path d="M49.16 127.61H53.77" stroke="#263238" stroke-miterlimit="10"/>
<path d="M58.85 131.615H49.16" stroke="#263238" stroke-miterlimit="10"/>
<path d="M70.385 131.615H59.97" stroke="#263238" stroke-miterlimit="10"/>
<path d="M74.53 131.615H71.505" stroke="#263238" stroke-miterlimit="10"/>
<path d="M88.75 131.615H75.31" stroke="#263238" stroke-miterlimit="10"/>
<path d="M106.215 131.615H90.205" stroke="#263238" stroke-miterlimit="10"/>
<path d="M118.98 131.615H107.895" stroke="#263238" stroke-miterlimit="10"/>
<path d="M125.045 131.615H120.435" stroke="#263238" stroke-miterlimit="10"/>
<path d="M115.355 135.445H125.045" stroke="#263238" stroke-miterlimit="10"/>
<path d="M103.825 135.445H114.235" stroke="#263238" stroke-miterlimit="10"/>
<path d="M99.68 135.445H102.705" stroke="#263238" stroke-miterlimit="10"/>
<path d="M85.46 135.445H98.895" stroke="#263238" stroke-miterlimit="10"/>
<path d="M67.99 135.445H84.005" stroke="#263238" stroke-miterlimit="10"/>
<path d="M55.225 135.445H66.31" stroke="#263238" stroke-miterlimit="10"/>
<path d="M49.16 135.445H53.77" stroke="#263238" stroke-miterlimit="10"/>
<path d="M58.85 139.45H49.16" stroke="#263238" stroke-miterlimit="10"/>
<path d="M70.385 139.45H59.97" stroke="#263238" stroke-miterlimit="10"/>
<path d="M74.53 139.45H71.505" stroke="#263238" stroke-miterlimit="10"/>
<path d="M88.75 139.45H75.31" stroke="#263238" stroke-miterlimit="10"/>
<path d="M106.215 139.45H90.205" stroke="#263238" stroke-miterlimit="10"/>
<path d="M118.98 139.45H107.895" stroke="#263238" stroke-miterlimit="10"/>
<path d="M125.045 139.45H120.435" stroke="#263238" stroke-miterlimit="10"/>
<path d="M115.355 143.28H125.045" stroke="#263238" stroke-miterlimit="10"/>
<path d="M103.825 143.28H114.235" stroke="#263238" stroke-miterlimit="10"/>
<path d="M99.68 143.28H102.705" stroke="#263238" stroke-miterlimit="10"/>
<path d="M85.46 143.28H98.895" stroke="#263238" stroke-miterlimit="10"/>
<path d="M67.99 143.28H84.005" stroke="#263238" stroke-miterlimit="10"/>
<path d="M55.225 143.28H66.31" stroke="#263238" stroke-miterlimit="10"/>
<path d="M49.16 143.28H53.77" stroke="#263238" stroke-miterlimit="10"/>
<path d="M58.85 147.285H49.16" stroke="#263238" stroke-miterlimit="10"/>
<path d="M70.385 147.285H59.97" stroke="#263238" stroke-miterlimit="10"/>
<path d="M74.53 147.285H71.505" stroke="#263238" stroke-miterlimit="10"/>
<path d="M88.75 147.285H75.31" stroke="#263238" stroke-miterlimit="10"/>
<path d="M106.215 147.285H90.205" stroke="#263238" stroke-miterlimit="10"/>
<path d="M118.98 147.285H107.895" stroke="#263238" stroke-miterlimit="10"/>
<path d="M125.045 147.285H120.435" stroke="#263238" stroke-miterlimit="10"/>
<path d="M115.355 151.115H125.045" stroke="#263238" stroke-miterlimit="10"/>
<path d="M103.825 151.115H114.235" stroke="#263238" stroke-miterlimit="10"/>
<path d="M99.68 151.115H102.705" stroke="#263238" stroke-miterlimit="10"/>
<path d="M85.46 151.115H98.895" stroke="#263238" stroke-miterlimit="10"/>
<path d="M67.99 151.115H84.005" stroke="#263238" stroke-miterlimit="10"/>
<path d="M55.225 151.115H66.31" stroke="#263238" stroke-miterlimit="10"/>
<path d="M49.16 151.115H53.77" stroke="#263238" stroke-miterlimit="10"/>
<path d="M58.85 155.115H49.16" stroke="#263238" stroke-miterlimit="10"/>
<path d="M70.385 155.115H59.97" stroke="#263238" stroke-miterlimit="10"/>
<path d="M74.53 155.115H71.505" stroke="#263238" stroke-miterlimit="10"/>
<path d="M88.75 155.115H75.31" stroke="#263238" stroke-miterlimit="10"/>
<path d="M106.215 155.115H90.205" stroke="#263238" stroke-miterlimit="10"/>
<path d="M118.98 155.115H107.895" stroke="#263238" stroke-miterlimit="10"/>
<path d="M125.045 155.115H120.435" stroke="#263238" stroke-miterlimit="10"/>
<path d="M115.355 158.945H125.045" stroke="#263238" stroke-miterlimit="10"/>
<path d="M103.825 158.945H114.235" stroke="#263238" stroke-miterlimit="10"/>
<path d="M99.68 158.945H102.705" stroke="#263238" stroke-miterlimit="10"/>
<path d="M85.46 158.945H98.895" stroke="#263238" stroke-miterlimit="10"/>
<path d="M67.99 158.945H84.005" stroke="#263238" stroke-miterlimit="10"/>
<path d="M55.225 158.945H66.31" stroke="#263238" stroke-miterlimit="10"/>
<path d="M49.16 158.945H53.77" stroke="#263238" stroke-miterlimit="10"/>
<path d="M58.85 162.95H49.16" stroke="#263238" stroke-miterlimit="10"/>
<path d="M70.385 162.95H59.97" stroke="#263238" stroke-miterlimit="10"/>
<path d="M74.53 162.95H71.505" stroke="#263238" stroke-miterlimit="10"/>
<path d="M88.75 162.95H75.31" stroke="#263238" stroke-miterlimit="10"/>
<path d="M106.215 162.95H90.205" stroke="#263238" stroke-miterlimit="10"/>
<path d="M118.98 162.95H107.895" stroke="#263238" stroke-miterlimit="10"/>
<path d="M125.045 162.95H120.435" stroke="#263238" stroke-miterlimit="10"/>
<path d="M51.835 51L51.305 53.77H49.89L52.5 40H54.72L57.35 53.745H55.82L55.31 51H51.835ZM52.03 49.685H55.095L53.545 41.755L52.03 49.685Z" fill="#263238"/>
<path d="M61.63 40C63.79 40 64.695 41.1 64.695 43.145V44.26C64.695 45.76 64.165 46.715 62.985 47.09C64.24 47.46 64.715 48.48 64.715 49.955V52.095C64.6701 52.6592 64.7646 53.2258 64.99 53.745H63.44C63.2205 53.2173 63.1314 52.6445 63.18 52.075V49.925C63.18 48.375 62.455 47.885 61.18 47.885H60.1V53.755H58.57V40H61.63ZM61.24 46.5C62.455 46.5 63.18 46.105 63.18 44.615V43.29C63.18 42.055 62.73 41.405 61.59 41.405H60.09V46.5H61.24Z" fill="#263238"/>
<path d="M68.285 53.755V41.405H65.755V40H72.33V41.395H69.8V53.745L68.285 53.755Z" fill="#263238"/>
<path d="M74.905 40V53.745H73.37V40H74.905Z" fill="#263238"/>
<path d="M82.54 43.33V44.565H81.085V43.25C81.085 42.015 80.585 41.25 79.475 41.25C78.365 41.25 77.865 41.995 77.865 43.25V50.5C77.865 51.735 78.365 52.5 79.475 52.5C80.585 52.5 81.085 51.755 81.085 50.5V48.73H82.54V50.435C82.54 52.515 81.54 53.89 79.44 53.89C77.34 53.89 76.355 52.515 76.355 50.435V43.33C76.355 41.25 77.355 39.875 79.44 39.875C81.525 39.875 82.54 41.25 82.54 43.33Z" fill="#263238"/>
<path d="M83.935 53.755V40H85.465V52.35H89.39V53.745L83.935 53.755Z" fill="#263238"/>
<path d="M95.44 46.095V47.47H92.08V52.36H96.205V53.755H90.55V40H96.205V41.395H92.08V46.085L95.44 46.095Z" fill="#263238"/>
<path d="M156.335 163.065C156.335 163.065 144.835 165.815 140.835 171.565C136.835 177.315 127.335 195.315 124.835 198.815C122.335 202.315 113.835 207.315 112.335 214.565C110.835 221.815 112.585 226.815 120.335 230.815C128.085 234.815 138.335 226.565 144.335 224.315L144.585 233.315H207.085L209.335 222.565C209.335 222.565 223.085 223.815 226.835 222.565C230.585 221.315 235.585 224.315 236.085 221.315C236.585 218.315 234.335 212.065 231.335 206.815C228.335 201.565 228.335 203.065 225.335 195.815C222.335 188.565 220.085 181.815 217.585 175.565C215.085 169.315 209.87 164 205.03 162.395C200.19 160.79 189.085 161.815 184.835 161.315C180.585 160.815 156.335 163.065 156.335 163.065Z" fill="#3ECC5F" stroke="#263238" stroke-linecap="round" stroke-linejoin="round"/>
<path d="M208 215.565C208 215.565 212.33 208.73 220.165 206.565" stroke="#263238" stroke-linecap="round" stroke-linejoin="round"/>
<path d="M219.955 200.5C220.621 200.159 221.305 199.855 222.005 199.59" stroke="#263238" stroke-linecap="round" stroke-linejoin="round"/>
<path d="M206.835 212.9C206.835 212.9 211.29 205.865 217.94 201.63" stroke="#263238" stroke-linecap="round" stroke-linejoin="round"/>
<path d="M209.835 187.83C207.335 194.115 203.665 204.86 204.335 212.23" stroke="#263238" stroke-linecap="round" stroke-linejoin="round"/>
<path d="M212 182.73C212 182.73 211.54 183.73 210.85 185.335" stroke="#263238" stroke-linecap="round" stroke-linejoin="round"/>
<path d="M125.18 208.035C128.594 208.984 131.658 210.905 134 213.565" stroke="#263238" stroke-linecap="round" stroke-linejoin="round"/>
<path d="M119.5 207.565C120.631 207.422 121.776 207.431 122.905 207.59" stroke="#263238" stroke-linecap="round" stroke-linejoin="round"/>
<path d="M128.805 203.44C131.74 205.53 135.5 209 137 213.73" stroke="#263238" stroke-linecap="round" stroke-linejoin="round"/>
<path d="M124.835 201.065C125.696 201.482 126.531 201.951 127.335 202.47" stroke="#263238" stroke-linecap="round" stroke-linejoin="round"/>
<path d="M167.045 175.655C167.045 175.655 170.27 181.03 178.335 180.85C186.4 180.67 189.8 171.89 189.8 167.41C189.8 162.93 186.935 159.885 179.41 161.675C171.885 163.465 163.46 163.65 167.045 175.655Z" fill="white" stroke="#263238" stroke-linecap="round" stroke-linejoin="round"/>
<path d="M168.3 165.08C168.3 165.08 166.15 172.43 167.045 175.655C167.681 177.79 168.585 179.837 169.735 181.745C169.735 181.745 175.825 176.01 176.735 175.295C177.645 174.58 183.185 180.85 183.905 181.565C184.625 182.28 188.74 179.775 189.995 173.86C191.25 167.945 190.355 160.96 189.1 159.17C187.845 157.38 186.41 157.2 186.41 157.2C186.41 157.2 172.96 155.765 168.3 165.08Z" fill="white" stroke="#263238" stroke-linecap="round" stroke-linejoin="round"/>
<path d="M169.555 165.8C169.555 165.8 174.75 174.58 176.365 174.755C177.98 174.93 185.14 169.025 187.115 164.185C189.09 159.345 187.47 154.15 187.47 154.15C187.47 154.15 181.38 161.855 177.26 164.365C173.14 166.875 169.555 165.8 169.555 165.8Z" fill="white" stroke="#263238" stroke-linecap="round" stroke-linejoin="round"/>
<path d="M177.26 164.365C175.057 165.782 172.4 166.318 169.82 165.865L169.645 165.955C169.985 166.52 171.275 168.655 172.675 170.685C173.832 170.939 175.043 170.742 176.06 170.135C181.23 167.405 185.245 158.22 185.245 158.22L182.95 159.36C181.11 161.3 179 163.3 177.26 164.365Z" fill="#263238" stroke="#263238" stroke-linecap="round" stroke-linejoin="round"/>
<path d="M151.635 118.135C151.635 118.135 140.105 136.53 142.255 147.1C144.405 157.67 154.325 170.28 151.28 173.68C148.235 177.08 146.62 175.83 148.05 177.805C149.48 179.78 158.265 181.925 164.715 179.775C171.165 177.625 171.885 168.5 168.5 163.65C165.115 158.8 158.825 140.355 161.5 136.055C164.175 131.755 174.94 134.265 178.7 136.055C182.46 137.845 187.305 148.42 186.765 153.255C186.225 158.09 188.38 169.205 195.725 169.38C203.07 169.555 205.04 162.38 205.04 162.38C205.04 162.38 200.205 163.455 200.205 160.765C200.205 158.075 204.145 154.675 202.355 147.15C200.565 139.625 196.44 138.19 195.905 130.305C195.37 122.42 192.32 114.715 186.225 110.24C180.13 105.765 164 99.325 151.635 118.135Z" fill="#263238" stroke="#263238" stroke-linecap="round" stroke-linejoin="round"/>
<path d="M152.665 143.135C152.045 145.539 152.004 148.057 152.545 150.48C154.315 159.645 162.68 168.815 161.07 174.445C159.46 180.075 154.475 179.59 151.57 177.18" stroke="#6B6B6B" stroke-linecap="round" stroke-linejoin="round"/>
<path d="M155.925 138.255C154.978 138.91 154.199 139.778 153.65 140.79" stroke="#6B6B6B" stroke-linecap="round" stroke-linejoin="round"/>
<path d="M158.155 167.38C159.167 168.784 159.735 170.46 159.785 172.19" stroke="#6B6B6B" stroke-linecap="round" stroke-linejoin="round"/>
<path d="M161.045 120.775C157.38 123.775 152.975 127.965 149.815 132.945C143.38 143.08 144.02 145.655 147.56 153.695C149.825 158.845 154.2 162.345 157.06 165.885" stroke="#6B6B6B" stroke-linecap="round" stroke-linejoin="round"/>
<path d="M167.825 115.895C167.825 115.895 166 116.99 163.395 118.94" stroke="#6B6B6B" stroke-linecap="round" stroke-linejoin="round"/>
<path d="M170.08 110.105C170.08 110.105 167.025 119.755 167.505 121.685" stroke="#6B6B6B" stroke-linecap="round" stroke-linejoin="round"/>
<path d="M195.725 165.555C196.485 166.124 197.328 166.573 198.225 166.885" stroke="#6B6B6B" stroke-linecap="round" stroke-linejoin="round"/>
<path d="M189.465 132.73C192.285 134.774 194.665 137.363 196.465 140.345C202.58 149.995 197.915 152.245 195.02 157.555C193.42 160.49 193.49 162.64 194.475 164.195" stroke="#6B6B6B" stroke-linecap="round" stroke-linejoin="round"/>
<path d="M183.59 130.21C184.827 130.382 186.025 130.768 187.13 131.35" stroke="#6B6B6B" stroke-linecap="round" stroke-linejoin="round"/>
<path d="M192.605 128.5C193.321 129.34 193.964 130.24 194.525 131.19" stroke="#6B6B6B" stroke-linecap="round" stroke-linejoin="round"/>
<path d="M169.92 118.47C169.92 118.47 170.885 122.01 179.57 122.17C183.986 122.231 188.206 124.008 191.335 127.125" stroke="#6B6B6B" stroke-linecap="round" stroke-linejoin="round"/>
<path d="M168.12 122.615C168.12 122.615 158.265 131.395 156.295 136.95C154.325 142.505 160.795 155.585 161.49 157.555C162.255 159.655 164.35 161.61 165.79 163.25C168.13 165.91 171.635 169.435 175.52 168.91C180.365 168.255 185.335 160.755 187.47 156.84C189.605 152.925 190 147 190 147C190 147 192.5 147.18 192.5 143.775C192.5 140.37 192.855 135.175 191.065 135.175C189.883 135.235 188.752 135.676 187.84 136.43C183.527 134.761 179.484 132.467 175.84 129.62C169.91 124.945 168.12 122.615 168.12 122.615Z" fill="white" stroke="#263238" stroke-linecap="round" stroke-linejoin="round"/>
<path d="M168.66 154.33C168.731 154.673 168.875 154.996 169.083 155.278C169.29 155.56 169.556 155.794 169.862 155.964C170.169 156.134 170.508 156.236 170.857 156.263C171.206 156.29 171.556 156.241 171.885 156.12C174.57 155.405 174.93 154.51 174.93 154.51" stroke="#263238" stroke-linecap="round" stroke-linejoin="round"/>
<path d="M168.5 158.095C168.5 158.095 174.41 160.245 177.815 156.66" stroke="#263238" stroke-linecap="round" stroke-linejoin="round"/>
<path d="M173.5 139.815C173.5 139.815 175.83 137.13 181.205 138.74" stroke="#263238" stroke-width="2" stroke-linecap="round" stroke-linejoin="round"/>
<path d="M165.61 141.79C165.61 141.79 162.03 140.535 158.98 140.535" stroke="#263238" stroke-width="2" stroke-linecap="round" stroke-linejoin="round"/>
<path d="M169.195 143.94C166.532 142.774 163.679 142.105 160.775 141.965C156.115 141.79 155.4 142.505 155.58 143.22C155.76 143.935 155.935 151.465 160.055 152.18C164.175 152.895 168.12 152.18 168.835 150.21C169.55 148.24 169.195 143.94 169.195 143.94Z" stroke="#263238" stroke-linecap="round" stroke-linejoin="round"/>
<path d="M171.7 143.6C174.148 142.038 176.858 140.934 179.7 140.34C184.27 139.44 185.09 140.035 185.025 140.77C184.96 141.505 185.96 148.965 182 150.32C178.04 151.675 174.035 151.575 173 149.74C171.965 147.905 171.7 143.6 171.7 143.6Z" stroke="#263238" stroke-linecap="round" stroke-linejoin="round"/>
<path d="M169.195 143.94C169.531 143.641 169.948 143.449 170.393 143.389C170.838 143.328 171.292 143.402 171.695 143.6" stroke="#263238" stroke-linecap="round" stroke-linejoin="round"/>
<path d="M165.605 147.035C165.745 148.035 165.46 148.865 164.97 148.935C164.48 149.005 163.97 148.27 163.83 147.29C163.69 146.31 163.97 145.46 164.46 145.39C164.95 145.32 165.46 146.055 165.605 147.035Z" fill="#263238"/>
<path d="M178.325 146.14C178.465 147.14 178.185 147.97 177.695 148.04C177.205 148.11 176.695 147.375 176.55 146.395C176.405 145.415 176.69 144.565 177.18 144.495C177.67 144.425 178.185 145.16 178.325 146.14Z" fill="#263238"/>
<path d="M184.965 139.995L187.83 136.415" stroke="#263238" stroke-linecap="round" stroke-linejoin="round"/>
<path d="M188.835 209.065C188.835 209.065 188.335 207.065 185.835 205.065C183.335 203.065 177.335 201.565 177.335 203.315C177.335 205.065 183.335 210.315 185.085 212.815C186.835 215.315 188.585 220.815 192.335 223.565C196.085 226.315 214.835 232.315 222.835 232.815C230.835 233.315 236.085 228.065 235.835 222.565C235.585 217.065 231.585 212.065 225.085 211.065C218.585 210.065 215.585 213.315 211.835 214.315C208.085 215.315 205.085 216.315 205.085 216.315C205.085 216.315 207.085 209.565 206.585 207.565C206.085 205.565 202.685 204.3 202.685 204.3L200.085 201.8C200.085 201.8 194.835 197.55 194.085 197.55C193.335 197.55 190.335 194.05 186.585 194.05C182.835 194.05 178.085 196.8 179.585 198.3C181.085 199.8 184.335 198.8 186.085 198.8C187.835 198.8 189.585 202.55 189.585 202.55C189.585 202.55 187.335 204.05 188.085 205.05C188.835 206.05 189.335 206.8 189.335 206.8L188.835 209.065Z" fill="white" stroke="#263238" stroke-linecap="round" stroke-linejoin="round"/>
<path d="M189.205 206.5C189.205 206.5 189.57 208.5 191.12 208.5C192.67 208.5 192.03 206.225 192.575 205.5C193.12 204.775 194.575 202.13 194.575 202.13" stroke="#263238" stroke-linecap="round" stroke-linejoin="round"/>
<path d="M201.865 204.665C201.865 204.665 198.315 208.035 198.04 208.22C197.765 208.405 196.95 210.315 196.31 211.315C195.67 212.315 194.125 212.59 193.67 211.315C193.215 210.04 193.85 208.035 194.395 207.125C194.94 206.215 196.675 203.48 196.675 203.48C196.675 203.48 197.86 201.75 199.5 201.75" stroke="#263238" stroke-linecap="round" stroke-linejoin="round"/>
<path d="M199.955 206.67C199.955 206.67 198.04 209.31 198.04 210.315C198.04 211.32 197.405 213.865 198.225 214.23C199.045 214.595 200.135 214.595 200.685 213.41C201.235 212.225 201.865 210.86 201.865 210.86C201.865 210.86 203.145 210.77 203.69 209.86" stroke="#263238" stroke-linecap="round" stroke-linejoin="round"/>
<path d="M201.865 210.86C202.136 211.47 202.624 211.956 203.235 212.225" stroke="#263238" stroke-linecap="round" stroke-linejoin="round"/>
<path d="M193.5 197.47C193.178 197.435 192.854 197.517 192.587 197.7C192.32 197.884 192.128 198.157 192.045 198.47C191.59 199.655 189.6 202.565 189.6 202.565" stroke="#263238" stroke-linecap="round" stroke-linejoin="round"/>
<path d="M191.845 203.845C192.008 204.504 192.13 205.171 192.21 205.845" stroke="#263238" stroke-linecap="round" stroke-linejoin="round"/>
<path d="M193.94 203.39C194.128 204.109 194.584 204.728 195.215 205.12" stroke="#263238" stroke-linecap="round" stroke-linejoin="round"/>
<path d="M205.085 216.315C205.085 216.315 203.17 222.73 201.67 224.4" stroke="#263238" stroke-linecap="round" stroke-linejoin="round"/>
<path d="M136.315 194.17L150.5 232.915C150.675 233.399 150.995 233.817 151.417 234.112C151.838 234.408 152.34 234.566 152.855 234.565H190C190.406 234.568 190.806 234.473 191.167 234.286C191.528 234.1 191.837 233.829 192.07 233.496C192.302 233.164 192.45 232.779 192.501 232.377C192.551 231.974 192.503 231.565 192.36 231.185L178.5 193.775C178.153 192.835 177.525 192.024 176.701 191.453C175.877 190.883 174.897 190.579 173.895 190.585L138.635 190.795C138.233 190.799 137.838 190.899 137.483 191.087C137.128 191.276 136.824 191.548 136.597 191.879C136.369 192.21 136.225 192.591 136.176 192.99C136.126 193.389 136.174 193.794 136.315 194.17Z" fill="#263238" stroke="#263238" stroke-linecap="round" stroke-linejoin="round"/>
<path d="M132.335 216.315L133.085 210.315C133.085 210.315 135.585 209.565 134.335 205.315C133.085 201.065 132.335 200.565 133.835 200.565C135.335 200.565 138.335 201.315 139.085 203.815C139.835 206.315 140.085 210.815 140.085 210.815C140.085 210.815 157.835 208.315 159.085 208.315C160.335 208.315 161.585 209.565 159.585 210.565C157.585 211.565 147.585 216.065 147.585 216.065C147.585 216.065 160.335 213.315 161.085 213.315C161.835 213.315 164.335 213.315 163.085 214.565C161.835 215.815 158.585 217.315 158.585 217.315C158.585 217.315 164.335 216.315 164.085 218.065C163.835 219.815 157.835 221.565 157.835 221.565C157.835 221.565 160.585 221.565 159.835 222.815C159.085 224.065 148.085 228.065 145.835 229.065C143.585 230.065 136.835 230.065 136.835 230.065C133.891 231.765 130.678 232.948 127.335 233.565C121.835 234.565 116.085 234.315 113.585 228.565C111.085 222.815 113.085 214.815 118.085 212.315C123.085 209.815 126.585 210.565 128.585 212.065C130.585 213.565 132.335 216.315 132.335 216.315Z" fill="white" stroke="#263238" stroke-linecap="round" stroke-linejoin="round"/>
<path d="M147.585 216.065L142.585 217.565" stroke="#263238" stroke-linecap="round" stroke-linejoin="round"/>
<path d="M158.585 217.315L144.085 221.815" stroke="#263238" stroke-linecap="round" stroke-linejoin="round"/>
<path d="M157.835 221.565L145.585 225.815" stroke="#263238" stroke-linecap="round" stroke-linejoin="round"/>
<path d="M132.335 216.315C132.335 216.315 131.335 218.315 128.335 216.315" stroke="#263238" stroke-linecap="round" stroke-linejoin="round"/>
<path d="M136.835 230.065L131.085 228.815" stroke="#263238" stroke-linecap="round" stroke-linejoin="round"/>
<path d="M140.085 210.815L134.835 211.815" stroke="#263238" stroke-linecap="round" stroke-linejoin="round"/>
<path d="M83.755 200.39C83.7106 201.243 83.8487 202.095 84.16 202.89C85.39 205.97 85.75 207.24 85.25 209.74" stroke="#263238" stroke-miterlimit="10" stroke-linecap="round"/>
<path d="M84.945 196.455C84.5636 197.117 84.2679 197.824 84.065 198.56" stroke="#263238" stroke-miterlimit="10" stroke-linecap="round"/>
<path d="M89.35 196.455C89.35 196.455 87.305 199.755 88.56 202.9C89.815 206.045 90.155 207.25 89.655 209.75" stroke="#263238" stroke-miterlimit="10" stroke-linecap="round"/>
<path d="M94.27 207.935C94.2558 208.545 94.1838 209.153 94.055 209.75" stroke="#263238" stroke-miterlimit="10" stroke-linecap="round"/>
<path d="M93.75 196.455C93.75 196.455 91.705 199.755 92.965 202.9C93.3475 203.815 93.6813 204.75 93.965 205.7" stroke="#263238" stroke-miterlimit="10" stroke-linecap="round"/>
<path d="M97.53 216.415C97.53 216.415 99.57 214.375 101.055 216.045C102.54 217.715 101.98 226.045 100.68 228.655C99.38 231.265 96.405 228.79 96.405 228.79V226.985C96.405 226.985 97.735 228.215 99.22 226.735C100.705 225.255 100.3 219.38 99.72 218.455C99.14 217.53 96.94 218.825 96.94 218.825L97.53 216.415Z" fill="white" stroke="#263238" stroke-linecap="round" stroke-linejoin="round"/>
<path d="M96.38 236.71H82.285L80.525 211.975H98.14L96.38 236.71Z" fill="white" stroke="#263238" stroke-linecap="round" stroke-linejoin="round"/>
</svg>
